<?xml version="1.0" encoding="utf-8" standalone="no"?>
<!DOCTYPE svg PUBLIC "-//W3C//DTD SVG 1.1//EN"
  "http://www.w3.org/Graphics/SVG/1.1/DTD/svg11.dtd">
<svg xmlns:xlink="http://www.w3.org/1999/xlink" width="414.36pt" height="179.28pt" viewBox="0 0 414.36 179.28" xmlns="http://www.w3.org/2000/svg" version="1.1">
 <metadata>
  <rdf:RDF xmlns:dc="http://purl.org/dc/elements/1.1/" xmlns:cc="http://creativecommons.org/ns#" xmlns:rdf="http://www.w3.org/1999/02/22-rdf-syntax-ns#">
   <cc:Work>
    <dc:type rdf:resource="http://purl.org/dc/dcmitype/StillImage"/>
    <dc:date>2024-01-26T20:06:01.057165</dc:date>
    <dc:format>image/svg+xml</dc:format>
    <dc:creator>
     <cc:Agent>
      <dc:title>Matplotlib v3.8.2, https://matplotlib.org/</dc:title>
     </cc:Agent>
    </dc:creator>
   </cc:Work>
  </rdf:RDF>
 </metadata>
 <defs>
  <style type="text/css">*{stroke-linejoin: round; stroke-linecap: butt}</style>
 </defs>
 <g id="figure_1">
  <g id="patch_1">
   <path d="M 0 179.28 
L 414.36 179.28 
L 414.36 0 
L 0 0 
z
" style="fill: #ffffff"/>
  </g>
  <g id="axes_1">
   <g id="patch_2">
    <path d="M 22.372563 166.3735 
L 202.324219 166.3735 
L 202.324219 5.6025 
L 22.372563 5.6025 
z
" style="fill: #ffffff"/>
   </g>
   <g id="patch_3">
    <path d="M 161.243809 5.6025 
L 160.275535 8.965409 
L 159.316943 7.855649 
L 131.930004 39.561461 
L 131.910638 39.539042 
L 159.297578 7.83323 
L 158.338986 6.72347 
z
" clip-path="url(#p3142821cf2)" style="fill: #0000ff; stroke: #0000ff; stroke-linejoin: miter"/>
   </g>
   <g id="patch_4">
    <path d="M 202.324219 5.6025 
L 201.355944 8.965409 
L 200.397352 7.855649 
L 173.010413 39.561461 
L 172.991047 39.539042 
L 200.377987 7.83323 
L 199.419395 6.72347 
z
" clip-path="url(#p3142821cf2)" style="fill: #008000; stroke: #008000; stroke-linejoin: miter"/>
   </g>
   <g id="matplotlib.axis_1">
    <g id="text_1">
     <!-- t -->
     <g transform="translate(110.388234 177.971938) scale(0.1 -0.1)">
      <defs>
       <path id="DejaVuSans-74" d="M 1172 4494 
L 1172 3500 
L 2356 3500 
L 2356 3053 
L 1172 3053 
L 1172 1153 
Q 1172 725 1289 603 
Q 1406 481 1766 481 
L 2356 481 
L 2356 0 
L 1766 0 
Q 1100 0 847 248 
Q 594 497 594 1153 
L 594 3053 
L 172 3053 
L 172 3500 
L 594 3500 
L 594 4494 
L 1172 4494 
z
" transform="scale(0.015625)"/>
      </defs>
      <use xlink:href="#DejaVuSans-74"/>
     </g>
    </g>
   </g>
   <g id="matplotlib.axis_2">
    <g id="text_2">
     <!-- f -->
     <g transform="translate(16.292875 87.748156) rotate(-90) scale(0.1 -0.1)">
      <defs>
       <path id="DejaVuSans-66" d="M 2375 4863 
L 2375 4384 
L 1825 4384 
Q 1516 4384 1395 4259 
Q 1275 4134 1275 3809 
L 1275 3500 
L 2222 3500 
L 2222 3053 
L 1275 3053 
L 1275 0 
L 697 0 
L 697 3053 
L 147 3053 
L 147 3500 
L 697 3500 
L 697 3744 
Q 697 4328 969 4595 
Q 1241 4863 1831 4863 
L 2375 4863 
z
" transform="scale(0.015625)"/>
      </defs>
      <use xlink:href="#DejaVuSans-66"/>
     </g>
    </g>
   </g>
   <g id="line2d_1">
    <path d="M 22.372563 166.3735 
L 23.755741 164.772196 
L 25.13892 163.170893 
L 26.522099 161.569589 
L 27.905278 159.968285 
L 29.288456 158.366982 
L 30.671635 156.765678 
L 32.054814 155.164375 
L 33.437993 153.563071 
L 34.821171 151.961767 
L 36.20435 150.360464 
L 37.587529 148.75916 
L 38.970708 147.157856 
L 40.353886 145.556553 
L 41.737065 143.955249 
L 43.120244 142.353945 
L 44.503423 140.752642 
L 45.886602 139.151338 
L 47.26978 137.550034 
L 48.652959 135.948731 
L 50.036138 134.347427 
L 51.419317 132.746124 
L 52.802495 131.14482 
L 54.185674 129.543516 
L 55.568853 127.942213 
L 56.952032 126.340909 
L 58.33521 124.739605 
L 59.718389 123.138302 
L 61.101568 121.536998 
L 62.484747 119.935694 
L 63.867925 118.334391 
L 65.251104 116.733087 
L 66.634283 115.131783 
L 68.017462 113.53048 
L 69.400641 111.929176 
L 70.783819 110.327873 
L 72.166998 108.726569 
L 73.550177 107.125265 
L 74.933356 105.523962 
L 76.316534 103.922658 
L 77.699713 102.321354 
L 79.082892 100.720051 
L 80.466071 99.118747 
L 81.849249 97.517443 
L 83.232428 95.91614 
L 84.615607 94.314836 
L 85.998786 92.713532 
L 87.381965 91.112229 
L 88.765143 89.510925 
L 90.148322 87.909622 
L 91.531501 86.308318 
L 92.91468 84.707014 
L 94.297858 83.105711 
L 95.681037 81.504407 
L 97.064216 79.903103 
L 98.447395 78.3018 
L 99.830573 76.700496 
L 101.213752 75.099192 
L 102.596931 73.497889 
L 103.98011 71.896585 
L 105.363288 70.295281 
L 106.746467 68.693978 
L 108.129646 67.092674 
L 109.512825 65.491371 
L 110.896004 63.890067 
L 112.279182 62.288763 
L 113.662361 60.68746 
L 115.04554 59.086156 
L 116.428719 57.484852 
L 117.811897 55.883549 
L 119.195076 54.282245 
L 120.578255 52.680941 
L 121.961434 51.079638 
L 123.344612 49.478334 
L 124.727791 47.877031 
L 126.11097 46.275727 
L 127.494149 44.674423 
L 128.877327 43.07312 
L 130.260506 41.471816 
L 131.643685 39.870512 
L 133.026864 38.269209 
L 134.410043 36.667905 
L 135.793221 35.066601 
L 137.1764 33.465298 
L 138.559579 31.863994 
L 139.942758 30.26269 
L 141.325936 28.661387 
L 142.709115 27.060083 
L 144.092294 25.45878 
L 145.475473 23.857476 
L 146.858651 22.256172 
L 148.24183 20.654869 
L 149.625009 19.053565 
L 151.008188 17.452261 
L 152.391367 15.850958 
L 153.774545 14.249654 
L 155.157724 12.64835 
L 156.540903 11.047047 
L 157.924082 9.445743 
L 159.30726 7.844439 
" clip-path="url(#p3142821cf2)" style="fill: none; stroke: #0000ff; stroke-width: 1.5; stroke-linecap: square"/>
   </g>
   <g id="line2d_2">
    <path d="M 63.452972 166.3735 
L 64.836151 164.772196 
L 66.219329 163.170893 
L 67.602508 161.569589 
L 68.985687 159.968285 
L 70.368866 158.366982 
L 71.752044 156.765678 
L 73.135223 155.164375 
L 74.518402 153.563071 
L 75.901581 151.961767 
L 77.28476 150.360464 
L 78.667938 148.75916 
L 80.051117 147.157856 
L 81.434296 145.556553 
L 82.817475 143.955249 
L 84.200653 142.353945 
L 85.583832 140.752642 
L 86.967011 139.151338 
L 88.35019 137.550034 
L 89.733368 135.948731 
L 91.116547 134.347427 
L 92.499726 132.746124 
L 93.882905 131.14482 
L 95.266083 129.543516 
L 96.649262 127.942213 
L 98.032441 126.340909 
L 99.41562 124.739605 
L 100.798799 123.138302 
L 102.181977 121.536998 
L 103.565156 119.935694 
L 104.948335 118.334391 
L 106.331514 116.733087 
L 107.714692 115.131783 
L 109.097871 113.53048 
L 110.48105 111.929176 
L 111.864229 110.327873 
L 113.247407 108.726569 
L 114.630586 107.125265 
L 116.013765 105.523962 
L 117.396944 103.922658 
L 118.780122 102.321354 
L 120.163301 100.720051 
L 121.54648 99.118747 
L 122.929659 97.517443 
L 124.312838 95.91614 
L 125.696016 94.314836 
L 127.079195 92.713532 
L 128.462374 91.112229 
L 129.845553 89.510925 
L 131.228731 87.909622 
L 132.61191 86.308318 
L 133.995089 84.707014 
L 135.378268 83.105711 
L 136.761446 81.504407 
L 138.144625 79.903103 
L 139.527804 78.3018 
L 140.910983 76.700496 
L 142.294162 75.099192 
L 143.67734 73.497889 
L 145.060519 71.896585 
L 146.443698 70.295281 
L 147.826877 68.693978 
L 149.210055 67.092674 
L 150.593234 65.491371 
L 151.976413 63.890067 
L 153.359592 62.288763 
L 154.74277 60.68746 
L 156.125949 59.086156 
L 157.509128 57.484852 
L 158.892307 55.883549 
L 160.275485 54.282245 
L 161.658664 52.680941 
L 163.041843 51.079638 
L 164.425022 49.478334 
L 165.808201 47.877031 
L 167.191379 46.275727 
L 168.574558 44.674423 
L 169.957737 43.07312 
L 171.340916 41.471816 
L 172.724094 39.870512 
L 174.107273 38.269209 
L 175.490452 36.667905 
L 176.873631 35.066601 
L 178.256809 33.465298 
L 179.639988 31.863994 
L 181.023167 30.26269 
L 182.406346 28.661387 
L 183.789524 27.060083 
L 185.172703 25.45878 
L 186.555882 23.857476 
L 187.939061 22.256172 
L 189.32224 20.654869 
L 190.705418 19.053565 
L 192.088597 17.452261 
L 193.471776 15.850958 
L 194.854955 14.249654 
L 196.238133 12.64835 
L 197.621312 11.047047 
L 199.004491 9.445743 
L 200.38767 7.844439 
" clip-path="url(#p3142821cf2)" style="fill: none; stroke: #008000; stroke-width: 1.5; stroke-linecap: square"/>
   </g>
   <g id="line2d_3">
    <path d="M 63.452972 166.3735 
L 63.452972 5.6025 
" clip-path="url(#p3142821cf2)" style="fill: none; stroke-dasharray: 5.55,2.4; stroke-dashoffset: 0; stroke: #808080; stroke-width: 1.5"/>
   </g>
   <g id="line2d_4">
    <path d="M 159.30726 166.3735 
L 159.30726 5.6025 
" clip-path="url(#p3142821cf2)" style="fill: none; stroke-dasharray: 5.55,2.4; stroke-dashoffset: 0; stroke: #808080; stroke-width: 1.5"/>
   </g>
   <g id="patch_5">
    <path d="M 22.372563 166.3735 
L 22.372563 5.6025 
" style="fill: none; stroke: #000000; stroke-width: 0.8; stroke-linejoin: miter; stroke-linecap: square"/>
   </g>
   <g id="patch_6">
    <path d="M 22.372563 166.3735 
L 202.324219 166.3735 
" style="fill: none; stroke: #000000; stroke-width: 0.8; stroke-linejoin: miter; stroke-linecap: square"/>
   </g>
  </g>
  <g id="axes_2">
   <g id="patch_7">
    <path d="M 224.696781 166.3735 
L 404.648437 166.3735 
L 404.648437 5.6025 
L 224.696781 5.6025 
z
" style="fill: #ffffff"/>
   </g>
   <g id="matplotlib.axis_3">
    <g id="text_3">
     <!-- t -->
     <g transform="translate(312.712453 177.971938) scale(0.1 -0.1)">
      <use xlink:href="#DejaVuSans-74"/>
     </g>
    </g>
   </g>
   <g id="matplotlib.axis_4">
    <g id="text_4">
     <!-- f -->
     <g transform="translate(218.617094 87.748156) rotate(-90) scale(0.1 -0.1)">
      <use xlink:href="#DejaVuSans-66"/>
     </g>
    </g>
   </g>
   <g id="line2d_5">
    <path d="M 279.47066 118.1422 
L 280.300568 118.1422 
L 281.130475 118.1422 
L 281.960382 118.1422 
L 282.790289 118.1422 
L 283.620197 118.1422 
L 284.450104 118.1422 
L 285.280011 118.1422 
L 286.109918 118.1422 
L 286.939826 118.1422 
L 287.769733 118.1422 
L 288.59964 118.1422 
L 289.429547 118.1422 
L 290.259455 118.1422 
L 291.089362 118.1422 
L 291.919269 118.1422 
L 292.749177 118.1422 
L 293.579084 118.1422 
L 294.408991 118.1422 
L 295.238898 118.1422 
L 296.068806 118.1422 
L 296.898713 118.1422 
L 297.72862 118.1422 
L 298.558527 118.1422 
L 299.388435 118.1422 
L 300.218342 118.1422 
L 301.048249 118.1422 
L 301.878156 118.1422 
L 302.708064 118.1422 
L 303.537971 118.1422 
L 304.367878 118.1422 
L 305.197785 118.1422 
L 306.027693 118.1422 
L 306.8576 118.1422 
L 307.687507 118.1422 
L 308.517414 118.1422 
L 309.347322 118.1422 
L 310.177229 118.1422 
L 311.007136 118.1422 
L 311.837044 118.1422 
L 312.666951 118.1422 
L 313.496858 118.1422 
L 314.326765 118.1422 
L 315.156673 118.1422 
L 315.98658 118.1422 
L 316.816487 118.1422 
L 317.646394 118.1422 
L 318.476302 118.1422 
L 319.306209 118.1422 
L 320.136116 118.1422 
L 320.966023 118.1422 
L 321.795931 118.1422 
L 322.625838 118.1422 
L 323.455745 118.1422 
L 324.285652 118.1422 
L 325.11556 118.1422 
L 325.945467 118.1422 
L 326.775374 118.1422 
L 327.605281 118.1422 
L 328.435189 118.1422 
L 329.265096 118.1422 
L 330.095003 118.1422 
L 330.92491 118.1422 
L 331.754818 118.1422 
L 332.584725 118.1422 
L 333.414632 118.1422 
L 334.24454 118.1422 
L 335.074447 118.1422 
L 335.904354 118.1422 
L 336.734261 118.1422 
L 337.564169 118.1422 
L 338.394076 118.1422 
L 339.223983 118.1422 
L 340.05389 118.1422 
L 340.883798 118.1422 
L 341.713705 118.1422 
L 342.543612 118.1422 
L 343.373519 118.1422 
L 344.203427 118.1422 
L 345.033334 118.1422 
L 345.863241 118.1422 
L 346.693148 118.1422 
L 347.523056 118.1422 
L 348.352963 118.1422 
L 349.18287 118.1422 
L 350.012777 118.1422 
L 350.842685 118.1422 
L 351.672592 118.1422 
L 352.502499 118.1422 
L 353.332406 118.1422 
L 354.162314 118.1422 
L 354.992221 118.1422 
L 355.822128 118.1422 
L 356.652036 118.1422 
L 357.481943 118.1422 
L 358.31185 118.1422 
L 359.141757 118.1422 
L 359.971665 118.1422 
L 360.801572 118.1422 
L 361.631479 118.1422 
" clip-path="url(#p1f4690b79e)" style="fill: none; stroke: #008000; stroke-width: 1.5; stroke-linecap: square"/>
   </g>
   <g id="patch_8">
    <path d="M 224.696781 166.3735 
L 224.696781 5.6025 
" style="fill: none; stroke: #000000; stroke-width: 0.8; stroke-linejoin: miter; stroke-linecap: square"/>
   </g>
   <g id="patch_9">
    <path d="M 404.648437 166.3735 
L 404.648437 5.6025 
" style="fill: none; stroke: #000000; stroke-width: 0.8; stroke-linejoin: miter; stroke-linecap: square"/>
   </g>
   <g id="patch_10">
    <path d="M 224.696781 166.3735 
L 404.648437 166.3735 
" style="fill: none; stroke: #000000; stroke-width: 0.8; stroke-linejoin: miter; stroke-linecap: square"/>
   </g>
   <g id="patch_11">
    <path d="M 224.696781 5.6025 
L 404.648437 5.6025 
" style="fill: none; stroke: #000000; stroke-width: 0.8; stroke-linejoin: miter; stroke-linecap: square"/>
   </g>
  </g>
 </g>
 <defs>
  <clipPath id="p3142821cf2">
   <rect x="22.372563" y="5.6025" width="179.951656" height="160.771"/>
  </clipPath>
  <clipPath id="p1f4690b79e">
   <rect x="224.696781" y="5.6025" width="179.951656" height="160.771"/>
  </clipPath>
 </defs>
</svg>
