<?xml version="1.0" encoding="UTF-8" standalone="no"?>
<svg
   width="460.8pt"
   height="345.6pt"
   viewBox="0 0 460.8 345.6"
   version="1.1"
   id="svg19"
   sodipodi:docname="Figure_2.svg"
   inkscape:version="1.3.2 (091e20e, 2023-11-25, custom)"
   inkscape:export-filename="if1.pdf"
   inkscape:export-xdpi="96"
   inkscape:export-ydpi="96"
   xmlns:inkscape="http://www.inkscape.org/namespaces/inkscape"
   xmlns:sodipodi="http://sodipodi.sourceforge.net/DTD/sodipodi-0.dtd"
   xmlns:xlink="http://www.w3.org/1999/xlink"
   xmlns="http://www.w3.org/2000/svg"
   xmlns:svg="http://www.w3.org/2000/svg"
   xmlns:rdf="http://www.w3.org/1999/02/22-rdf-syntax-ns#"
   xmlns:cc="http://creativecommons.org/ns#"
   xmlns:dc="http://purl.org/dc/elements/1.1/">
  <sodipodi:namedview
     id="namedview19"
     pagecolor="#ffffff"
     bordercolor="#000000"
     borderopacity="0.25"
     inkscape:showpageshadow="2"
     inkscape:pageopacity="0.0"
     inkscape:pagecheckerboard="0"
     inkscape:deskcolor="#d1d1d1"
     inkscape:document-units="pt"
     inkscape:zoom="0.6423611"
     inkscape:cx="45.924325"
     inkscape:cy="-7.7837839"
     inkscape:window-width="1440"
     inkscape:window-height="830"
     inkscape:window-x="1486"
     inkscape:window-y="-6"
     inkscape:window-maximized="1"
     inkscape:current-layer="axes_1" />
  <metadata
     id="metadata1">
    <rdf:RDF>
      <cc:Work>
        <dc:type
           rdf:resource="http://purl.org/dc/dcmitype/StillImage" />
        <dc:date>2024-01-26T19:53:14.949876</dc:date>
        <dc:format>image/svg+xml</dc:format>
        <dc:creator>
          <cc:Agent>
            <dc:title>Matplotlib v3.8.2, https://matplotlib.org/</dc:title>
          </cc:Agent>
        </dc:creator>
      </cc:Work>
    </rdf:RDF>
  </metadata>
  <defs
     id="defs1">
    <style
       type="text/css"
       id="style1">*{stroke-linejoin: round; stroke-linecap: butt}</style>
    <clipPath
       id="pde751affcd-3">
      <rect
         x="24.879999"
         y="10.8"
         width="425.12"
         height="142.52"
         id="rect18-0" />
    </clipPath>
    <clipPath
       id="pde751affcd-6">
      <rect
         x="24.879999"
         y="10.8"
         width="425.12"
         height="142.52"
         id="rect18-07" />
    </clipPath>
  </defs>
  <g
     id="figure_1">
    <g
       id="patch_1">
      <path
         d="M 0 345.6  L 460.8 345.6  L 460.8 0  L 0 0  z "
         style="fill: #ffffff"
         id="path1" />
    </g>
    <g
       id="axes_1">
      <g
         id="patch_2">
        <path
           d="M 24.88 153.32  L 450 153.32  L 450 10.8  L 24.88 10.8  z "
           style="fill: #ffffff"
           id="path2" />
      </g>
      <g
         id="patch_3">
        <path
           d="M 352.951137 10.8  L 350.663673 13.781146  L 348.399084 12.797368  L 283.699842 40.903882  L 283.654093 40.884007  L 348.353335 12.777494  L 346.088746 11.793715  z "
           clip-path="url(#pde751affcd)"
           style="fill: #0000ff; stroke: #0000ff; stroke-linejoin: miter"
           id="path3" />
      </g>
      <g
         id="patch_4">
        <path
           d="M 450 10.8  L 447.712536 13.781146  L 445.447947 12.797368  L 380.748705 40.903882  L 380.702956 40.884007  L 445.402198 12.777494  L 443.137609 11.793715  z "
           clip-path="url(#pde751affcd)"
           style="fill: #008000; stroke: #008000; stroke-linejoin: miter"
           id="path4" />
      </g>
      <g
         id="matplotlib.axis_1">
        <g
           id="text_1">
          <!-- t -->
          <g
             transform="translate(235.479844 164.918437) scale(0.1 -0.1)"
             id="g4">
            <defs
               id="defs4">
              <path
                 id="DejaVuSans-74"
                 d="M 1172 4494  L 1172 3500  L 2356 3500  L 2356 3053  L 1172 3053  L 1172 1153  Q 1172 725 1289 603  Q 1406 481 1766 481  L 2356 481  L 2356 0  L 1766 0  Q 1100 0 847 248  Q 594 497 594 1153  L 594 3053  L 172 3053  L 172 3500  L 594 3500  L 594 4494  L 1172 4494  z "
                 transform="scale(0.015625)" />
            </defs>
            <use
               xlink:href="#DejaVuSans-74"
               id="use4" />
          </g>
        </g>
      </g>
      <g
         id="matplotlib.axis_2">
        <g
           id="text_2">
          <!-- f -->
          <g
             transform="translate(18.800313 83.820156) rotate(-90) scale(0.1 -0.1)"
             id="g5">
            <defs
               id="defs5">
              <path
                 id="DejaVuSans-66"
                 d="M 2375 4863  L 2375 4384  L 1825 4384  Q 1516 4384 1395 4259  Q 1275 4134 1275 3809  L 1275 3500  L 2222 3500  L 2222 3053  L 1275 3053  L 1275 0  L 697 0  L 697 3053  L 147 3053  L 147 3500  L 697 3500  L 697 3744  Q 697 4328 969 4595  Q 1241 4863 1831 4863  L 2375 4863  z "
                 transform="scale(0.015625)" />
            </defs>
            <use
               xlink:href="#DejaVuSans-66"
               id="use5" />
          </g>
        </g>
      </g>
      <g
         id="line2d_1">
        <path
           d="M 24.88 153.32  L 28.147638 151.900479  L 31.415277 150.480958  L 34.682915 149.061437  L 37.950554 147.641916  L 41.218192 146.222395  L 44.485831 144.802875  L 47.753469 143.383354  L 51.021108 141.963833  L 54.288746 140.544312  L 57.556385 139.124791  L 60.824023 137.70527  L 64.091662 136.285749  L 67.3593 134.866228  L 70.626939 133.446707  L 73.894577 132.027186  L 77.162216 130.607666  L 80.429854 129.188145  L 83.697493 127.768624  L 86.965131 126.349103  L 90.23277 124.929582  L 93.500408 123.510061  L 96.768047 122.09054  L 100.035685 120.671019  L 103.303324 119.251498  L 106.570962 117.831977  L 109.838601 116.412457  L 113.106239 114.992936  L 116.373878 113.573415  L 119.641516 112.153894  L 122.909154 110.734373  L 126.176793 109.314852  L 129.444431 107.895331  L 132.71207 106.47581  L 135.979708 105.056289  L 139.247347 103.636768  L 142.514985 102.217248  L 145.782624 100.797727  L 149.050262 99.378206  L 152.317901 97.958685  L 155.585539 96.539164  L 158.853178 95.119643  L 162.120816 93.700122  L 165.388455 92.280601  L 168.656093 90.86108  L 171.923732 89.441559  L 175.19137 88.022038  L 178.459009 86.602518  L 181.726647 85.182997  L 184.994286 83.763476  L 188.261924 82.343955  L 191.529563 80.924434  L 194.797201 79.504913  L 198.06484 78.085392  L 201.332478 76.665871  L 204.600117 75.24635  L 207.867755 73.826829  L 211.135394 72.407309  L 214.403032 70.987788  L 217.67067 69.568267  L 220.938309 68.148746  L 224.205947 66.729225  L 227.473586 65.309704  L 230.741224 63.890183  L 234.008863 62.470662  L 237.276501 61.051141  L 240.54414 59.63162  L 243.811778 58.2121  L 247.079417 56.792579  L 250.347055 55.373058  L 253.614694 53.953537  L 256.882332 52.534016  L 260.149971 51.114495  L 263.417609 49.694974  L 266.685248 48.275453  L 269.952886 46.855932  L 273.220525 45.436411  L 276.488163 44.016891  L 279.755802 42.59737  L 283.02344 41.177849  L 286.291079 39.758328  L 289.558717 38.338807  L 292.826356 36.919286  L 296.093994 35.499765  L 299.361633 34.080244  L 302.629271 32.660723  L 305.89691 31.241202  L 309.164548 29.821681  L 312.432186 28.402161  L 315.699825 26.98264  L 318.967463 25.563119  L 322.235102 24.143598  L 325.50274 22.724077  L 328.770379 21.304556  L 332.038017 19.885035  L 335.305656 18.465514  L 338.573294 17.045993  L 341.840933 15.626472  L 345.108571 14.206952  L 348.37621 12.787431  "
           clip-path="url(#pde751affcd)"
           style="fill: none; stroke: #0000ff; stroke-width: 1.5; stroke-linecap: square"
           id="path5" />
      </g>
      <g
         id="line2d_2">
        <path
           d="M 121.928863 153.32  L 125.196501 151.900479  L 128.46414 150.480958  L 131.731778 149.061437  L 134.999417 147.641916  L 138.267055 146.222395  L 141.534694 144.802875  L 144.802332 143.383354  L 148.069971 141.963833  L 151.337609 140.544312  L 154.605248 139.124791  L 157.872886 137.70527  L 161.140525 136.285749  L 164.408163 134.866228  L 167.675802 133.446707  L 170.94344 132.027186  L 174.211079 130.607666  L 177.478717 129.188145  L 180.746356 127.768624  L 184.013994 126.349103  L 187.281633 124.929582  L 190.549271 123.510061  L 193.81691 122.09054  L 197.084548 120.671019  L 200.352187 119.251498  L 203.619825 117.831977  L 206.887463 116.412457  L 210.155102 114.992936  L 213.42274 113.573415  L 216.690379 112.153894  L 219.958017 110.734373  L 223.225656 109.314852  L 226.493294 107.895331  L 229.760933 106.47581  L 233.028571 105.056289  L 236.29621 103.636768  L 239.563848 102.217248  L 242.831487 100.797727  L 246.099125 99.378206  L 249.366764 97.958685  L 252.634402 96.539164  L 255.902041 95.119643  L 259.169679 93.700122  L 262.437318 92.280601  L 265.704956 90.86108  L 268.972595 89.441559  L 272.240233 88.022038  L 275.507872 86.602518  L 278.77551 85.182997  L 282.043149 83.763476  L 285.310787 82.343955  L 288.578426 80.924434  L 291.846064 79.504913  L 295.113703 78.085392  L 298.381341 76.665871  L 301.648979 75.24635  L 304.916618 73.826829  L 308.184256 72.407309  L 311.451895 70.987788  L 314.719533 69.568267  L 317.987172 68.148746  L 321.25481 66.729225  L 324.522449 65.309704  L 327.790087 63.890183  L 331.057726 62.470662  L 334.325364 61.051141  L 337.593003 59.63162  L 340.860641 58.2121  L 344.12828 56.792579  L 347.395918 55.373058  L 350.663557 53.953537  L 353.931195 52.534016  L 357.198834 51.114495  L 360.466472 49.694974  L 363.734111 48.275453  L 367.001749 46.855932  L 370.269388 45.436411  L 373.537026 44.016891  L 376.804665 42.59737  L 380.072303 41.177849  L 383.339942 39.758328  L 386.60758 38.338807  L 389.875219 36.919286  L 393.142857 35.499765  L 396.410495 34.080244  L 399.678134 32.660723  L 402.945772 31.241202  L 406.213411 29.821681  L 409.481049 28.402161  L 412.748688 26.98264  L 416.016326 25.563119  L 419.283965 24.143598  L 422.551603 22.724077  L 425.819242 21.304556  L 429.08688 19.885035  L 432.354519 18.465514  L 435.622157 17.045993  L 438.889796 15.626472  L 442.157434 14.206952  L 445.425073 12.787431  "
           clip-path="url(#pde751affcd)"
           style="fill: none; stroke: #008000; stroke-width: 1.5; stroke-linecap: square"
           id="path6" />
      </g>
      <g
         id="line2d_3"
         transform="matrix(1,0,0,1.070941,0,-0.76616199)">
        <path
           d="M 121.92886,153.32 V 10.8"
           clip-path="url(#pde751affcd)"
           style="fill:none;stroke:#808080;stroke-width:1.5;stroke-dasharray:5.55, 2.4;stroke-dashoffset:0"
           id="path7" />
      </g>
      <g
         id="line2d_4">
        <path
           d="M 348.37621 153.32  L 348.37621 10.8  "
           clip-path="url(#pde751affcd)"
           style="fill: none; stroke-dasharray: 5.55,2.4; stroke-dashoffset: 0; stroke: #808080; stroke-width: 1.5"
           id="path8" />
      </g>
      <g
         id="patch_5"
         transform="matrix(1,0,0,1.0733192,0,-0.76251972)">
        <path
           d="M 24.88,153.32 V 10.8"
           style="fill:none;stroke:#000000;stroke-width:0.8;stroke-linecap:square;stroke-linejoin:miter"
           id="path9" />
      </g>
      <g
         id="patch_6">
        <path
           d="M 450 153.32  L 450 10.8  "
           style="fill: none; stroke: #000000; stroke-width: 0.8; stroke-linejoin: miter; stroke-linecap: square"
           id="path10" />
      </g>
      <g
         id="patch_7">
        <path
           d="M 24.88 153.32  L 450 153.32  "
           style="fill: none; stroke: #000000; stroke-width: 0.8; stroke-linejoin: miter; stroke-linecap: square"
           id="path11" />
      </g>
      <g
         id="patch_8">
        <path
           d="M 24.88 10.8  L 450 10.8  "
           style="fill: none; stroke: #000000; stroke-width: 0.8; stroke-linejoin: miter; stroke-linecap: square"
           id="path12" />
      </g>
    </g>
    <g
       id="axes_2">
      <g
         id="patch_9">
        <path
           d="M 24.88 320.72  L 450 320.72  L 450 178.2  L 24.88 178.2  z "
           style="fill: #ffffff"
           id="path13" />
      </g>
      <g
         id="matplotlib.axis_3">
        <g
           id="text_3">
          <!-- t -->
          <g
             transform="translate(235.479844 332.318437) scale(0.1 -0.1)"
             id="g13">
            <use
               xlink:href="#DejaVuSans-74"
               id="use13" />
          </g>
        </g>
      </g>
      <g
         id="matplotlib.axis_4">
        <g
           id="text_4">
          <!-- f -->
          <g
             transform="translate(18.800313 251.220156) rotate(-90) scale(0.1 -0.1)"
             id="g14">
            <use
               xlink:href="#DejaVuSans-66"
               id="use14" />
          </g>
        </g>
      </g>
      <g
         id="line2d_5"
         inkscape:label="line2d_5"
         transform="matrix(1.1578115,0,0,1,-55.096127,0)">
        <path
           d="m 154.27848,277.964 h 1.96059 1.96058 1.96058 1.96059 1.96058 1.96058 1.96059 1.96058 1.96058 1.96058 1.96059 1.96058 1.96058 1.96059 1.96058 1.96058 1.96059 1.96058 1.96058 1.96059 1.96058 1.96058 1.96058 1.96059 1.96058 1.96058 1.96059 1.96058 1.96058 1.96059 1.96058 1.96058 1.96059 1.96058 1.96058 1.96058 1.96059 1.96058 1.96058 1.96059 1.96058 1.96058 1.96059 1.96058 1.96058 1.96059 1.96058 1.96058 1.96058 1.96059 1.96058 1.96059 1.96058 1.96058 1.96058 1.96059 1.96058 1.96058 1.96059 1.96058 1.96058 1.96058 1.96059 1.96058 1.96058 1.96059 1.96058 1.96058 1.96059 1.96058 1.96058 1.96059 1.96058 1.96058 1.96059 1.96058 1.96058 1.96058 1.96059 1.96058 1.96058 1.96059 1.96058 1.96058 1.96059 1.96058 1.96058 1.96059 1.96058 1.96058 1.96059 1.96058 1.96058 1.96058 1.96059 1.96058 1.96058 1.96059 1.96058"
           clip-path="url(#p54c7cffd90)"
           style="fill:none;stroke:#008000;stroke-width:1.5;stroke-linecap:square"
           id="path14" />
      </g>
      <g
         id="patch_10">
        <path
           d="M 24.88 320.72  L 24.88 178.2  "
           style="fill: none; stroke: #000000; stroke-width: 0.8; stroke-linejoin: miter; stroke-linecap: square"
           id="path15" />
      </g>
      <g
         id="patch_11">
        <path
           d="M 450 320.72  L 450 178.2  "
           style="fill: none; stroke: #000000; stroke-width: 0.8; stroke-linejoin: miter; stroke-linecap: square"
           id="path16" />
      </g>
      <g
         id="patch_12">
        <path
           d="M 24.88 320.72  L 450 320.72  "
           style="fill: none; stroke: #000000; stroke-width: 0.8; stroke-linejoin: miter; stroke-linecap: square"
           id="path17" />
      </g>
      <g
         id="patch_13">
        <path
           d="M 24.88 178.2  L 450 178.2  "
           style="fill: none; stroke: #000000; stroke-width: 0.8; stroke-linejoin: miter; stroke-linecap: square"
           id="path18" />
      </g>
    </g>
  </g>
  <g
     id="line2d_3-0"
     transform="matrix(1,0,0,1.2056244,226.45038,136.09377)"
     style="stroke-linecap:butt;stroke-linejoin:round">
    <path
       d="M 121.92886,153.32 V 10.8"
       clip-path="url(#pde751affcd-6)"
       style="fill:none;stroke:#808080;stroke-width:1.5;stroke-linecap:butt;stroke-linejoin:round;stroke-dasharray:5.55, 2.4;stroke-dashoffset:0"
       id="path7-8" />
  </g>
  <g
     id="line2d_3-7"
     transform="matrix(1,0,0,1.1313593,0.01805454,147.60073)"
     style="stroke-linecap:butt;stroke-linejoin:round">
    <path
       d="M 121.92886,153.32 V 10.8"
       clip-path="url(#pde751affcd-3)"
       style="fill:none;stroke:#808080;stroke-width:1.5;stroke-linecap:butt;stroke-linejoin:round;stroke-dasharray:5.55, 2.4;stroke-dashoffset:0"
       id="path7-6" />
  </g>
  <text
     xml:space="preserve"
     style="font-style:normal;font-variant:normal;font-weight:normal;font-stretch:normal;font-size:12.6875px;font-family:'Times New Roman';-inkscape-font-specification:'Times New Roman, ';fill:#000000;stroke-width:1.09784;stroke-linecap:butt;stroke-linejoin:round;stroke-dasharray:none"
     x="347.06149"
     y="277.49014"
     id="text90"
     transform="scale(1.0147464,0.98546788)"><tspan
       sodipodi:role="line"
       id="tspan90"
       style="stroke-width:1.09784"
       x="347.06149"
       y="277.49014">IF信号</tspan></text>
  <text
     xml:space="preserve"
     style="font-size:13.4748px;font-family:SimSun;-inkscape-font-specification:SimSun;fill:#000000;stroke-width:0.498867;stroke-linecap:butt;stroke-linejoin:round"
     x="121.6208"
     y="135.94142"
     id="text88"
     transform="scale(1.0104071,0.9897001)"><tspan
       sodipodi:role="line"
       id="tspan88"
       style="font-style:normal;font-variant:normal;font-weight:normal;font-stretch:normal;font-size:13.4748px;font-family:'Times New Roman';-inkscape-font-specification:'Times New Roman, ';stroke-width:0.498867"
       x="121.6208"
       y="135.94142">Δf</tspan></text>
  <g
     id="patch_9-7-6-8"
     transform="matrix(0.48298991,-0.66228392,0.91374018,0.33484744,-63.084503,172.36269)"
     style="stroke-linecap:butt;stroke-linejoin:round">
    <path
       d="m 126.52211,140.80578 q -8.24232,4.33954 -15.6577,8.2437"
       style="fill:none;stroke:#000000;stroke-width:0.972406;stroke-linecap:round;stroke-linejoin:round"
       id="path31-1-4-1" />
    <path
       d="m 116.23184,148.93546 -5.36534,0.11482 3.12735,-4.36116"
       style="fill:none;stroke:#000000;stroke-linecap:round;stroke-linejoin:round"
       id="path32-5-4-2" />
  </g>
  <g
     id="patch_9-7-6"
     transform="matrix(-0.48430869,0.66132015,-0.91307111,-0.33666759,316.52322,89.003415)"
     style="stroke-linecap:butt;stroke-linejoin:round">
    <path
       d="m 125.54618,141.33257 q -7.73111,4.06172 -14.68656,7.71596"
       style="fill:none;stroke:#000000;stroke-width:0.957938;stroke-linecap:round;stroke-linejoin:round"
       id="path31-1-4" />
    <path
       d="m 116.23184,148.93546 -5.36534,0.11482 3.12735,-4.36116"
       style="fill:none;stroke:#000000;stroke-linecap:round;stroke-linejoin:round"
       id="path32-5-4" />
  </g>
  <text
     xml:space="preserve"
     style="font-size:17px;font-family:SimSun;-inkscape-font-specification:SimSun;fill:#000000;stroke-width:1.471;stroke-linecap:butt;stroke-linejoin:round;stroke-dasharray:none"
     x="62.509804"
     y="176.89708"
     id="text89"
     transform="scale(1.0867951,0.92013665)"><tspan
       sodipodi:role="line"
       id="tspan89"
       style="font-style:normal;font-variant:normal;font-weight:normal;font-stretch:normal;font-size:17px;font-family:'Times New Roman';-inkscape-font-specification:'Times New Roman, ';stroke-width:1.471;stroke-dasharray:none"
       x="62.509804"
       y="176.89708">τ</tspan></text>
  <g
     id="patch_9-7"
     transform="matrix(-1.4013796,-0.46004178,0.73462617,-0.83744207,163.15485,335.35512)"
     style="stroke-linecap:butt;stroke-linejoin:round">
    <path
       d="m 129.59407,139.18009 q -9.85832,5.19573 -18.72757,9.87019"
       style="fill:none;stroke:#000000;stroke-linecap:round;stroke-linejoin:round"
       id="path31-1" />
    <path
       d="m 116.23184,148.93546 -5.36534,0.11482 3.12735,-4.36116"
       style="fill:none;stroke:#000000;stroke-linecap:round;stroke-linejoin:round"
       id="path32-5" />
  </g>
  <g
     id="patch_9-4"
     transform="matrix(1.3052406,0.45219201,-0.69378352,0.85072561,-13.243936,-17.981094)"
     style="stroke-linecap:butt;stroke-linejoin:round">
    <path
       d="m 129.59407,139.18009 q -9.85832,5.19573 -18.72757,9.87019"
       style="fill:none;stroke:#000000;stroke-linecap:round;stroke-linejoin:round"
       id="path31" />
    <path
       d="m 116.23184,148.93546 -5.36534,0.11482 3.12735,-4.36116"
       style="fill:none;stroke:#000000;stroke-linecap:round;stroke-linejoin:round"
       id="path32" />
  </g>
  <defs
     id="defs19">
    <clipPath
       id="pde751affcd">
      <rect
         x="24.88"
         y="10.8"
         width="425.12"
         height="142.52"
         id="rect18" />
    </clipPath>
    <clipPath
       id="p54c7cffd90">
      <rect
         x="24.88"
         y="178.2"
         width="425.12"
         height="142.52"
         id="rect19" />
    </clipPath>
  </defs>
</svg>
