<?xml version="1.0" encoding="UTF-8" standalone="no"?>
<svg
   width="460.8pt"
   height="345.6pt"
   viewBox="0 0 460.8 345.6"
   version="1.1"
   id="svg23"
   sodipodi:docname="ifs.svg"
   inkscape:version="1.3.2 (091e20e, 2023-11-25, custom)"
   inkscape:export-filename="ifs.pdf"
   inkscape:export-xdpi="96"
   inkscape:export-ydpi="96"
   xmlns:inkscape="http://www.inkscape.org/namespaces/inkscape"
   xmlns:sodipodi="http://sodipodi.sourceforge.net/DTD/sodipodi-0.dtd"
   xmlns="http://www.w3.org/2000/svg"
   xmlns:svg="http://www.w3.org/2000/svg"
   xmlns:rdf="http://www.w3.org/1999/02/22-rdf-syntax-ns#"
   xmlns:cc="http://creativecommons.org/ns#"
   xmlns:dc="http://purl.org/dc/elements/1.1/">
  <sodipodi:namedview
     id="namedview23"
     pagecolor="#ffffff"
     bordercolor="#000000"
     borderopacity="0.25"
     inkscape:showpageshadow="2"
     inkscape:pageopacity="0.0"
     inkscape:pagecheckerboard="0"
     inkscape:deskcolor="#d1d1d1"
     inkscape:document-units="pt"
     inkscape:zoom="0.90843578"
     inkscape:cx="225.11223"
     inkscape:cy="151.90947"
     inkscape:window-width="1440"
     inkscape:window-height="830"
     inkscape:window-x="1913"
     inkscape:window-y="1414"
     inkscape:window-maximized="1"
     inkscape:current-layer="svg23" />
  <metadata
     id="metadata1">
    <rdf:RDF>
      <cc:Work>
        <dc:type
           rdf:resource="http://purl.org/dc/dcmitype/StillImage" />
        <dc:date>2024-01-26T21:23:42.157948</dc:date>
        <dc:format>image/svg+xml</dc:format>
        <dc:creator>
          <cc:Agent>
            <dc:title>Matplotlib v3.8.2, https://matplotlib.org/</dc:title>
          </cc:Agent>
        </dc:creator>
      </cc:Work>
    </rdf:RDF>
  </metadata>
  <defs
     id="defs1">
    <style
       type="text/css"
       id="style1">*{stroke-linejoin: round; stroke-linecap: butt}</style>
    <filter
       inkscape:collect="always"
       style="color-interpolation-filters:sRGB"
       id="filter25"
       x="-0.025392963"
       y="-0.034936628"
       width="1.0507859"
       height="1.0698733">
      <feGaussianBlur
         inkscape:collect="always"
         stdDeviation="0.32665"
         id="feGaussianBlur25" />
    </filter>
    <path
       id="DejaVuSans-66"
       d="m 2375,4863 v -479 h -550 q -309,0 -430,-125 -120,-125 -120,-450 v -309 h 947 V 3053 H 1275 V 0 H 697 V 3053 H 147 v 447 h 550 v 244 q 0,584 272,851 272,268 862,268 z"
       transform="scale(0.015625)" />
    <path
       id="DejaVuSans-66-2"
       d="m 2375,4863 v -479 h -550 q -309,0 -430,-125 -120,-125 -120,-450 v -309 h 947 V 3053 H 1275 V 0 H 697 V 3053 H 147 v 447 h 550 v 244 q 0,584 272,851 272,268 862,268 z"
       transform="scale(0.015625)" />
    <path
       id="DejaVuSans-74"
       d="M 1172,4494 V 3500 H 2356 V 3053 H 1172 V 1153 q 0,-428 117,-550 117,-122 477,-122 h 590 V 0 H 1766 Q 1100,0 847,248 594,497 594,1153 V 3053 H 172 v 447 h 422 v 994 z"
       transform="scale(0.015625)" />
    <path
       id="DejaVuSans-74-5"
       d="M 1172,4494 V 3500 H 2356 V 3053 H 1172 V 1153 q 0,-428 117,-550 117,-122 477,-122 h 590 V 0 H 1766 Q 1100,0 847,248 594,497 594,1153 V 3053 H 172 v 447 h 422 v 994 z"
       transform="scale(0.015625)" />
  </defs>
  <g
     id="figure_1">
    <g
       id="patch_1">
      <path
         d="M 0 345.6  L 460.8 345.6  L 460.8 0  L 0 0  z "
         style="fill: #ffffff"
         id="path1" />
    </g>
    <text
       xml:space="preserve"
       style="font-style:normal;font-variant:normal;font-weight:normal;font-stretch:normal;font-size:16px;font-family:'Times New Roman';-inkscape-font-specification:'Times New Roman, ';fill:#000000;stroke:#000000;stroke-width:0.5;stroke-linecap:square;stroke-linejoin:bevel;stroke-dasharray:none;stroke-dashoffset:0"
       x="413.09375"
       y="168.0834"
       id="text20-2"><tspan
         sodipodi:role="line"
         id="tspan20-6"
         style="stroke-width:0.5"
         x="413.09375"
         y="168.0834">t</tspan></text>
    <text
       xml:space="preserve"
       style="font-style:normal;font-variant:normal;font-weight:normal;font-stretch:normal;font-size:16px;font-family:'Times New Roman';-inkscape-font-specification:'Times New Roman, ';fill:#000000;stroke:#000000;stroke-width:0.5;stroke-linecap:square;stroke-linejoin:bevel;stroke-dasharray:none;stroke-dashoffset:0"
       x="413.09375"
       y="336.43015"
       id="text20"><tspan
         sodipodi:role="line"
         id="tspan20"
         style="stroke-width:0.5"
         x="413.09375"
         y="336.43015">t</tspan></text>
    <text
       xml:space="preserve"
       style="font-style:normal;font-variant:normal;font-weight:normal;font-stretch:normal;font-size:16px;font-family:'Times New Roman';-inkscape-font-specification:'Times New Roman, ';fill:#000000;stroke:#000000;stroke-width:0.500001;stroke-linecap:square;stroke-linejoin:bevel;stroke-dasharray:none;stroke-dashoffset:0"
       x="7.882813"
       y="209.34377"
       id="text19-9-1"><tspan
         sodipodi:role="line"
         id="tspan19-0-9"
         style="font-style:normal;font-variant:normal;font-weight:normal;font-stretch:normal;font-size:16px;font-family:'Times New Roman';-inkscape-font-specification:'Times New Roman, ';stroke-width:0.500001;stroke-dasharray:none;stroke-dashoffset:0"
         x="7.882813"
         y="209.34377">f</tspan></text>
    <text
       xml:space="preserve"
       style="font-style:normal;font-variant:normal;font-weight:normal;font-stretch:normal;font-size:16px;font-family:'Times New Roman';-inkscape-font-specification:'Times New Roman, ';fill:#000000;stroke:#000000;stroke-width:0.500001;stroke-linecap:square;stroke-linejoin:bevel;stroke-dasharray:none;stroke-dashoffset:0"
       x="8.0340033"
       y="37.800159"
       id="text19-9"><tspan
         sodipodi:role="line"
         id="tspan19-0"
         style="font-style:normal;font-variant:normal;font-weight:normal;font-stretch:normal;font-size:16px;font-family:'Times New Roman';-inkscape-font-specification:'Times New Roman, ';stroke-width:0.500001;stroke-dasharray:none;stroke-dashoffset:0"
         x="8.0340033"
         y="37.800159">f</tspan></text>
    <g
       id="axes_1">
      <g
         id="patch_2">
        <path
           d="M 24.88 153.32  L 450 153.32  L 450 10.8  L 24.88 10.8  z "
           style="fill: #ffffff"
           id="path2" />
      </g>
      <g
         id="patch_3">
        <path
           d="M 309.616878 10.8  L 307.631561 13.781146  L 305.666097 12.797368  L 249.512848 40.903882  L 249.473142 40.884007  L 305.626391 12.777494  L 303.660927 11.793715  z "
           clip-path="url(#p155986768e)"
           style="fill: #0000ff; stroke: #0000ff; stroke-linejoin: miter"
           id="path3" />
      </g>
      <g
         id="patch_4">
        <path
           d="M 393.846751 10.8  L 391.861434 13.781146  L 389.89597 12.797368  L 333.742721 40.903882  L 333.703015 40.884007  L 389.856264 12.777494  L 387.8908 11.793715  z "
           clip-path="url(#p155986768e)"
           style="fill: #008000; stroke: #008000; stroke-linejoin: miter"
           id="path4" />
      </g>
      <g
         id="patch_5">
        <path
           d="M 421.923376 10.8  L 419.938058 13.781146  L 417.972594 12.797368  L 361.819346 40.903882  L 361.779639 40.884007  L 417.932888 12.777494  L 415.967424 11.793715  z "
           clip-path="url(#p155986768e)"
           style="fill: #ff0000; stroke: #ff0000; stroke-linejoin: miter"
           id="path5" />
      </g>
      <g
         id="patch_6">
        <path
           d="M 450 10.8  L 448.014683 13.781146  L 446.049219 12.797368  L 389.89597 40.903882  L 389.856264 40.884007  L 446.009513 12.777494  L 444.044049 11.793715  z "
           clip-path="url(#p155986768e)"
           style="fill: #a52a2a; stroke: #a52a2a; stroke-linejoin: miter"
           id="path6" />
      </g>
      <g
         id="matplotlib.axis_2">
        <g
           id="text_2">
          <!-- f -->
        </g>
      </g>
      <g
         id="line2d_1">
        <path
           d="M 24.88 153.32  L 27.716023 151.900479  L 30.552045 150.480958  L 33.388068 149.061437  L 36.224091 147.641916  L 39.060113 146.222395  L 41.896136 144.802875  L 44.732159 143.383354  L 47.568181 141.963833  L 50.404204 140.544312  L 53.240227 139.124791  L 56.076249 137.70527  L 58.912272 136.285749  L 61.748295 134.866228  L 64.584317 133.446707  L 67.42034 132.027186  L 70.256363 130.607666  L 73.092385 129.188145  L 75.928408 127.768624  L 78.764431 126.349103  L 81.600453 124.929582  L 84.436476 123.510061  L 87.272499 122.09054  L 90.108521 120.671019  L 92.944544 119.251498  L 95.780567 117.831977  L 98.616589 116.412457  L 101.452612 114.992936  L 104.288635 113.573415  L 107.124657 112.153894  L 109.96068 110.734373  L 112.796703 109.314852  L 115.632725 107.895331  L 118.468748 106.47581  L 121.304771 105.056289  L 124.140793 103.636768  L 126.976816 102.217248  L 129.812839 100.797727  L 132.648861 99.378206  L 135.484884 97.958685  L 138.320907 96.539164  L 141.156929 95.119643  L 143.992952 93.700122  L 146.828975 92.280601  L 149.664997 90.86108  L 152.50102 89.441559  L 155.337043 88.022038  L 158.173065 86.602518  L 161.009088 85.182997  L 163.845111 83.763476  L 166.681133 82.343955  L 169.517156 80.924434  L 172.353179 79.504913  L 175.189201 78.085392  L 178.025224 76.665871  L 180.861247 75.24635  L 183.697269 73.826829  L 186.533292 72.407309  L 189.369315 70.987788  L 192.205337 69.568267  L 195.04136 68.148746  L 197.877383 66.729225  L 200.713405 65.309704  L 203.549428 63.890183  L 206.385451 62.470662  L 209.221473 61.051141  L 212.057496 59.63162  L 214.893519 58.2121  L 217.729541 56.792579  L 220.565564 55.373058  L 223.401587 53.953537  L 226.237609 52.534016  L 229.073632 51.114495  L 231.909655 49.694974  L 234.745677 48.275453  L 237.5817 46.855932  L 240.417723 45.436411  L 243.253745 44.016891  L 246.089768 42.59737  L 248.925791 41.177849  L 251.761813 39.758328  L 254.597836 38.338807  L 257.433859 36.919286  L 260.269881 35.499765  L 263.105904 34.080244  L 265.941926 32.660723  L 268.777949 31.241202  L 271.613972 29.821681  L 274.449994 28.402161  L 277.286017 26.98264  L 280.12204 25.563119  L 282.958062 24.143598  L 285.794085 22.724077  L 288.630108 21.304556  L 291.46613 19.885035  L 294.302153 18.465514  L 297.138176 17.045993  L 299.974198 15.626472  L 302.810221 14.206952  L 305.646244 12.787431  "
           clip-path="url(#p155986768e)"
           style="fill: none; stroke: #0000ff; stroke-width: 1.5; stroke-linecap: square"
           id="path7" />
      </g>
      <g
         id="line2d_2">
        <path
           d="M 109.109873 153.32  L 111.945896 151.900479  L 114.781918 150.480958  L 117.617941 149.061437  L 120.453964 147.641916  L 123.289986 146.222395  L 126.126009 144.802875  L 128.962032 143.383354  L 131.798054 141.963833  L 134.634077 140.544312  L 137.4701 139.124791  L 140.306122 137.70527  L 143.142145 136.285749  L 145.978168 134.866228  L 148.81419 133.446707  L 151.650213 132.027186  L 154.486236 130.607666  L 157.322258 129.188145  L 160.158281 127.768624  L 162.994304 126.349103  L 165.830326 124.929582  L 168.666349 123.510061  L 171.502372 122.09054  L 174.338394 120.671019  L 177.174417 119.251498  L 180.01044 117.831977  L 182.846462 116.412457  L 185.682485 114.992936  L 188.518508 113.573415  L 191.35453 112.153894  L 194.190553 110.734373  L 197.026576 109.314852  L 199.862598 107.895331  L 202.698621 106.47581  L 205.534644 105.056289  L 208.370666 103.636768  L 211.206689 102.217248  L 214.042712 100.797727  L 216.878734 99.378206  L 219.714757 97.958685  L 222.55078 96.539164  L 225.386802 95.119643  L 228.222825 93.700122  L 231.058848 92.280601  L 233.89487 90.86108  L 236.730893 89.441559  L 239.566916 88.022038  L 242.402938 86.602518  L 245.238961 85.182997  L 248.074984 83.763476  L 250.911006 82.343955  L 253.747029 80.924434  L 256.583052 79.504913  L 259.419074 78.085392  L 262.255097 76.665871  L 265.09112 75.24635  L 267.927142 73.826829  L 270.763165 72.407309  L 273.599188 70.987788  L 276.43521 69.568267  L 279.271233 68.148746  L 282.107256 66.729225  L 284.943278 65.309704  L 287.779301 63.890183  L 290.615324 62.470662  L 293.451346 61.051141  L 296.287369 59.63162  L 299.123392 58.2121  L 301.959414 56.792579  L 304.795437 55.373058  L 307.63146 53.953537  L 310.467482 52.534016  L 313.303505 51.114495  L 316.139528 49.694974  L 318.97555 48.275453  L 321.811573 46.855932  L 324.647596 45.436411  L 327.483618 44.016891  L 330.319641 42.59737  L 333.155664 41.177849  L 335.991686 39.758328  L 338.827709 38.338807  L 341.663732 36.919286  L 344.499754 35.499765  L 347.335777 34.080244  L 350.1718 32.660723  L 353.007822 31.241202  L 355.843845 29.821681  L 358.679868 28.402161  L 361.51589 26.98264  L 364.351913 25.563119  L 367.187936 24.143598  L 370.023958 22.724077  L 372.859981 21.304556  L 375.696004 19.885035  L 378.532026 18.465514  L 381.368049 17.045993  L 384.204072 15.626472  L 387.040094 14.206952  L 389.876117 12.787431  "
           clip-path="url(#p155986768e)"
           style="fill: none; stroke: #008000; stroke-width: 1.5; stroke-linecap: square"
           id="path8" />
      </g>
      <g
         id="line2d_3">
        <path
           d="M 137.186498 153.32  L 140.02252 151.900479  L 142.858543 150.480958  L 145.694566 149.061437  L 148.530588 147.641916  L 151.366611 146.222395  L 154.202634 144.802875  L 157.038656 143.383354  L 159.874679 141.963833  L 162.710702 140.544312  L 165.546724 139.124791  L 168.382747 137.70527  L 171.218769 136.285749  L 174.054792 134.866228  L 176.890815 133.446707  L 179.726837 132.027186  L 182.56286 130.607666  L 185.398883 129.188145  L 188.234905 127.768624  L 191.070928 126.349103  L 193.906951 124.929582  L 196.742973 123.510061  L 199.578996 122.09054  L 202.415019 120.671019  L 205.251041 119.251498  L 208.087064 117.831977  L 210.923087 116.412457  L 213.759109 114.992936  L 216.595132 113.573415  L 219.431155 112.153894  L 222.267177 110.734373  L 225.1032 109.314852  L 227.939223 107.895331  L 230.775245 106.47581  L 233.611268 105.056289  L 236.447291 103.636768  L 239.283313 102.217248  L 242.119336 100.797727  L 244.955359 99.378206  L 247.791381 97.958685  L 250.627404 96.539164  L 253.463427 95.119643  L 256.299449 93.700122  L 259.135472 92.280601  L 261.971495 90.86108  L 264.807517 89.441559  L 267.64354 88.022038  L 270.479563 86.602518  L 273.315585 85.182997  L 276.151608 83.763476  L 278.987631 82.343955  L 281.823653 80.924434  L 284.659676 79.504913  L 287.495699 78.085392  L 290.331721 76.665871  L 293.167744 75.24635  L 296.003767 73.826829  L 298.839789 72.407309  L 301.675812 70.987788  L 304.511835 69.568267  L 307.347857 68.148746  L 310.18388 66.729225  L 313.019903 65.309704  L 315.855925 63.890183  L 318.691948 62.470662  L 321.527971 61.051141  L 324.363993 59.63162  L 327.200016 58.2121  L 330.036039 56.792579  L 332.872061 55.373058  L 335.708084 53.953537  L 338.544107 52.534016  L 341.380129 51.114495  L 344.216152 49.694974  L 347.052175 48.275453  L 349.888197 46.855932  L 352.72422 45.436411  L 355.560243 44.016891  L 358.396265 42.59737  L 361.232288 41.177849  L 364.068311 39.758328  L 366.904333 38.338807  L 369.740356 36.919286  L 372.576379 35.499765  L 375.412401 34.080244  L 378.248424 32.660723  L 381.084447 31.241202  L 383.920469 29.821681  L 386.756492 28.402161  L 389.592515 26.98264  L 392.428537 25.563119  L 395.26456 24.143598  L 398.100583 22.724077  L 400.936605 21.304556  L 403.772628 19.885035  L 406.608651 18.465514  L 409.444673 17.045993  L 412.280696 15.626472  L 415.116719 14.206952  L 417.952741 12.787431  "
           clip-path="url(#p155986768e)"
           style="fill: none; stroke: #ff0000; stroke-width: 1.5; stroke-linecap: square"
           id="path9" />
      </g>
      <g
         id="line2d_4">
        <path
           d="M 165.263122 153.32  L 168.099145 151.900479  L 170.935167 150.480958  L 173.77119 149.061437  L 176.607213 147.641916  L 179.443235 146.222395  L 182.279258 144.802875  L 185.115281 143.383354  L 187.951303 141.963833  L 190.787326 140.544312  L 193.623349 139.124791  L 196.459371 137.70527  L 199.295394 136.285749  L 202.131417 134.866228  L 204.967439 133.446707  L 207.803462 132.027186  L 210.639485 130.607666  L 213.475507 129.188145  L 216.31153 127.768624  L 219.147553 126.349103  L 221.983575 124.929582  L 224.819598 123.510061  L 227.655621 122.09054  L 230.491643 120.671019  L 233.327666 119.251498  L 236.163689 117.831977  L 238.999711 116.412457  L 241.835734 114.992936  L 244.671757 113.573415  L 247.507779 112.153894  L 250.343802 110.734373  L 253.179825 109.314852  L 256.015847 107.895331  L 258.85187 106.47581  L 261.687892 105.056289  L 264.523915 103.636768  L 267.359938 102.217248  L 270.19596 100.797727  L 273.031983 99.378206  L 275.868006 97.958685  L 278.704028 96.539164  L 281.540051 95.119643  L 284.376074 93.700122  L 287.212096 92.280601  L 290.048119 90.86108  L 292.884142 89.441559  L 295.720164 88.022038  L 298.556187 86.602518  L 301.39221 85.182997  L 304.228232 83.763476  L 307.064255 82.343955  L 309.900278 80.924434  L 312.7363 79.504913  L 315.572323 78.085392  L 318.408346 76.665871  L 321.244368 75.24635  L 324.080391 73.826829  L 326.916414 72.407309  L 329.752436 70.987788  L 332.588459 69.568267  L 335.424482 68.148746  L 338.260504 66.729225  L 341.096527 65.309704  L 343.93255 63.890183  L 346.768572 62.470662  L 349.604595 61.051141  L 352.440618 59.63162  L 355.27664 58.2121  L 358.112663 56.792579  L 360.948686 55.373058  L 363.784708 53.953537  L 366.620731 52.534016  L 369.456754 51.114495  L 372.292776 49.694974  L 375.128799 48.275453  L 377.964822 46.855932  L 380.800844 45.436411  L 383.636867 44.016891  L 386.47289 42.59737  L 389.308912 41.177849  L 392.144935 39.758328  L 394.980958 38.338807  L 397.81698 36.919286  L 400.653003 35.499765  L 403.489026 34.080244  L 406.325048 32.660723  L 409.161071 31.241202  L 411.997094 29.821681  L 414.833116 28.402161  L 417.669139 26.98264  L 420.505162 25.563119  L 423.341184 24.143598  L 426.177207 22.724077  L 429.01323 21.304556  L 431.849252 19.885035  L 434.685275 18.465514  L 437.521298 17.045993  L 440.35732 15.626472  L 443.193343 14.206952  L 446.029366 12.787431  "
           clip-path="url(#p155986768e)"
           style="fill: none; stroke: #a52a2a; stroke-width: 1.5; stroke-linecap: square"
           id="path10" />
      </g>
      <g
         id="line2d_5">
        <path
           d="M 165.263122 153.32  L 165.263122 10.8  "
           clip-path="url(#p155986768e)"
           style="fill: none; stroke-dasharray: 5.55,2.4; stroke-dashoffset: 0; stroke: #808080; stroke-width: 1.5"
           id="path11" />
      </g>
      <g
         id="line2d_6">
        <path
           d="M 305.646244 153.32  L 305.646244 10.8  "
           clip-path="url(#p155986768e)"
           style="fill: none; stroke-dasharray: 5.55,2.4; stroke-dashoffset: 0; stroke: #808080; stroke-width: 1.5"
           id="path12" />
      </g>
      <g
         id="patch_7">
        <path
           d="M 24.88 153.32  L 24.88 10.8  "
           style="fill: none; stroke: #000000; stroke-width: 0.8; stroke-linejoin: miter; stroke-linecap: square"
           id="path13" />
      </g>
      <g
         id="patch_8">
        <path
           d="M 24.88 153.32  L 450 153.32  "
           style="fill: none; stroke: #000000; stroke-width: 0.8; stroke-linejoin: miter; stroke-linecap: square"
           id="path14" />
      </g>
    </g>
    <text
       xml:space="preserve"
       style="font-size:13px;font-family:'Times New Roman';-inkscape-font-specification:'Times New Roman, ';fill:#000000;fill-opacity:1;stroke-width:1.471;stroke-linecap:butt;stroke-linejoin:round"
       x="127.05295"
       y="92.735519"
       id="text23"
       inkscape:label="text23"><tspan
         sodipodi:role="line"
         style="font-style:normal;font-variant:normal;font-weight:normal;font-stretch:normal;font-size:13px;font-family:SimSun;-inkscape-font-specification:SimSun;fill:#000000;fill-opacity:1;stroke-width:1.471"
         x="127.05295"
         y="92.735519"
         id="tspan1">多个</tspan><tspan
         sodipodi:role="line"
         style="font-style:normal;font-variant:normal;font-weight:normal;font-stretch:normal;font-size:13px;font-family:SimSun;-inkscape-font-specification:SimSun;fill:#000000;fill-opacity:1;stroke-width:1.471"
         x="127.05295"
         y="110.24332"
         id="tspan2">频率差</tspan></text>
    <g
       id="patch_9-7-6-6"
       transform="matrix(-0.45019445,1.4131117,-0.84875524,-0.71939271,364.27588,25.755161)"
       style="stroke-linecap:butt;stroke-linejoin:round">
      <path
         d="m 125.54618,141.33257 q -7.73111,4.06172 -14.68656,7.71596"
         style="fill:none;stroke:#000000;stroke-width:0.957938;stroke-linecap:round;stroke-linejoin:round"
         id="path31-1-4-2" />
      <path
         d="m 116.23184,148.93546 -5.36534,0.11482 3.12735,-4.36116"
         style="fill:none;stroke:#000000;stroke-linecap:round;stroke-linejoin:round"
         id="path32-5-4-9" />
    </g>
    <g
       id="patch_9-7-6-8-5"
       transform="matrix(0.45541164,-1.2500341,0.86156648,0.63201105,8.9471036,170.53747)"
       style="stroke-linecap:butt;stroke-linejoin:round">
      <path
         d="m 126.48285,140.7533 q -8.24232,4.33954 -15.6577,8.2437"
         style="fill:none;stroke:#000000;stroke-width:0.972406;stroke-linecap:round;stroke-linejoin:round"
         id="path31-1-4-1-7" />
      <path
         d="m 116.23184,148.93546 -5.36534,0.11482 3.12735,-4.36116"
         style="fill:none;stroke:#000000;stroke-linecap:round;stroke-linejoin:round"
         id="path32-5-4-2-4" />
    </g>
    <g
       id="patch_9-7-6-8"
       transform="matrix(0.46556094,-1.0138453,0.88076734,0.51259515,-12.010414,157.70188)"
       style="stroke-linecap:butt;stroke-linejoin:round">
      <path
         d="m 126.48285,140.7533 q -8.24232,4.33954 -15.6577,8.2437"
         style="fill:none;stroke:#000000;stroke-width:0.972406;stroke-linecap:round;stroke-linejoin:round"
         id="path31-1-4-1" />
      <path
         d="m 116.23184,148.93546 -5.36534,0.11482 3.12735,-4.36116"
         style="fill:none;stroke:#000000;stroke-linecap:round;stroke-linejoin:round"
         id="path32-5-4-2" />
    </g>
    <g
       id="axes_2">
      <g
         id="patch_9">
        <path
           d="M 24.88 320.72  L 450 320.72  L 450 178.2  L 24.88 178.2  z "
           style="fill: #ffffff"
           id="path15" />
      </g>
      <g
         id="matplotlib.axis_4" />
      <g
         id="line2d_7">
        <path
           d="M 165.263122 277.964  L 166.681133 277.964  L 168.099145 277.964  L 169.517156 277.964  L 170.935167 277.964  L 172.353179 277.964  L 173.77119 277.964  L 175.189201 277.964  L 176.607213 277.964  L 178.025224 277.964  L 179.443235 277.964  L 180.861247 277.964  L 182.279258 277.964  L 183.697269 277.964  L 185.115281 277.964  L 186.533292 277.964  L 187.951303 277.964  L 189.369315 277.964  L 190.787326 277.964  L 192.205337 277.964  L 193.623349 277.964  L 195.04136 277.964  L 196.459371 277.964  L 197.877383 277.964  L 199.295394 277.964  L 200.713405 277.964  L 202.131417 277.964  L 203.549428 277.964  L 204.967439 277.964  L 206.385451 277.964  L 207.803462 277.964  L 209.221473 277.964  L 210.639485 277.964  L 212.057496 277.964  L 213.475507 277.964  L 214.893519 277.964  L 216.31153 277.964  L 217.729541 277.964  L 219.147553 277.964  L 220.565564 277.964  L 221.983575 277.964  L 223.401587 277.964  L 224.819598 277.964  L 226.237609 277.964  L 227.655621 277.964  L 229.073632 277.964  L 230.491643 277.964  L 231.909655 277.964  L 233.327666 277.964  L 234.745677 277.964  L 236.163689 277.964  L 237.5817 277.964  L 238.999711 277.964  L 240.417723 277.964  L 241.835734 277.964  L 243.253745 277.964  L 244.671757 277.964  L 246.089768 277.964  L 247.507779 277.964  L 248.925791 277.964  L 250.343802 277.964  L 251.761813 277.964  L 253.179825 277.964  L 254.597836 277.964  L 256.015847 277.964  L 257.433859 277.964  L 258.85187 277.964  L 260.269881 277.964  L 261.687892 277.964  L 263.105904 277.964  L 264.523915 277.964  L 265.941926 277.964  L 267.359938 277.964  L 268.777949 277.964  L 270.19596 277.964  L 271.613972 277.964  L 273.031983 277.964  L 274.449994 277.964  L 275.868006 277.964  L 277.286017 277.964  L 278.704028 277.964  L 280.12204 277.964  L 281.540051 277.964  L 282.958062 277.964  L 284.376074 277.964  L 285.794085 277.964  L 287.212096 277.964  L 288.630108 277.964  L 290.048119 277.964  L 291.46613 277.964  L 292.884142 277.964  L 294.302153 277.964  L 295.720164 277.964  L 297.138176 277.964  L 298.556187 277.964  L 299.974198 277.964  L 301.39221 277.964  L 302.810221 277.964  L 304.228232 277.964  L 305.646244 277.964  "
           clip-path="url(#p86cf1e085f)"
           style="fill: none; stroke: #008000; stroke-width: 1.5; stroke-linecap: square"
           id="path16" />
      </g>
      <g
         id="line2d_8">
        <path
           d="M 165.263122 263.712  L 166.681133 263.712  L 168.099145 263.712  L 169.517156 263.712  L 170.935167 263.712  L 172.353179 263.712  L 173.77119 263.712  L 175.189201 263.712  L 176.607213 263.712  L 178.025224 263.712  L 179.443235 263.712  L 180.861247 263.712  L 182.279258 263.712  L 183.697269 263.712  L 185.115281 263.712  L 186.533292 263.712  L 187.951303 263.712  L 189.369315 263.712  L 190.787326 263.712  L 192.205337 263.712  L 193.623349 263.712  L 195.04136 263.712  L 196.459371 263.712  L 197.877383 263.712  L 199.295394 263.712  L 200.713405 263.712  L 202.131417 263.712  L 203.549428 263.712  L 204.967439 263.712  L 206.385451 263.712  L 207.803462 263.712  L 209.221473 263.712  L 210.639485 263.712  L 212.057496 263.712  L 213.475507 263.712  L 214.893519 263.712  L 216.31153 263.712  L 217.729541 263.712  L 219.147553 263.712  L 220.565564 263.712  L 221.983575 263.712  L 223.401587 263.712  L 224.819598 263.712  L 226.237609 263.712  L 227.655621 263.712  L 229.073632 263.712  L 230.491643 263.712  L 231.909655 263.712  L 233.327666 263.712  L 234.745677 263.712  L 236.163689 263.712  L 237.5817 263.712  L 238.999711 263.712  L 240.417723 263.712  L 241.835734 263.712  L 243.253745 263.712  L 244.671757 263.712  L 246.089768 263.712  L 247.507779 263.712  L 248.925791 263.712  L 250.343802 263.712  L 251.761813 263.712  L 253.179825 263.712  L 254.597836 263.712  L 256.015847 263.712  L 257.433859 263.712  L 258.85187 263.712  L 260.269881 263.712  L 261.687892 263.712  L 263.105904 263.712  L 264.523915 263.712  L 265.941926 263.712  L 267.359938 263.712  L 268.777949 263.712  L 270.19596 263.712  L 271.613972 263.712  L 273.031983 263.712  L 274.449994 263.712  L 275.868006 263.712  L 277.286017 263.712  L 278.704028 263.712  L 280.12204 263.712  L 281.540051 263.712  L 282.958062 263.712  L 284.376074 263.712  L 285.794085 263.712  L 287.212096 263.712  L 288.630108 263.712  L 290.048119 263.712  L 291.46613 263.712  L 292.884142 263.712  L 294.302153 263.712  L 295.720164 263.712  L 297.138176 263.712  L 298.556187 263.712  L 299.974198 263.712  L 301.39221 263.712  L 302.810221 263.712  L 304.228232 263.712  L 305.646244 263.712  "
           clip-path="url(#p86cf1e085f)"
           style="fill: none; stroke: #ff0000; stroke-width: 1.5; stroke-linecap: square"
           id="path17" />
      </g>
      <g
         id="line2d_9">
        <path
           d="M 165.263122 249.46  L 166.681133 249.46  L 168.099145 249.46  L 169.517156 249.46  L 170.935167 249.46  L 172.353179 249.46  L 173.77119 249.46  L 175.189201 249.46  L 176.607213 249.46  L 178.025224 249.46  L 179.443235 249.46  L 180.861247 249.46  L 182.279258 249.46  L 183.697269 249.46  L 185.115281 249.46  L 186.533292 249.46  L 187.951303 249.46  L 189.369315 249.46  L 190.787326 249.46  L 192.205337 249.46  L 193.623349 249.46  L 195.04136 249.46  L 196.459371 249.46  L 197.877383 249.46  L 199.295394 249.46  L 200.713405 249.46  L 202.131417 249.46  L 203.549428 249.46  L 204.967439 249.46  L 206.385451 249.46  L 207.803462 249.46  L 209.221473 249.46  L 210.639485 249.46  L 212.057496 249.46  L 213.475507 249.46  L 214.893519 249.46  L 216.31153 249.46  L 217.729541 249.46  L 219.147553 249.46  L 220.565564 249.46  L 221.983575 249.46  L 223.401587 249.46  L 224.819598 249.46  L 226.237609 249.46  L 227.655621 249.46  L 229.073632 249.46  L 230.491643 249.46  L 231.909655 249.46  L 233.327666 249.46  L 234.745677 249.46  L 236.163689 249.46  L 237.5817 249.46  L 238.999711 249.46  L 240.417723 249.46  L 241.835734 249.46  L 243.253745 249.46  L 244.671757 249.46  L 246.089768 249.46  L 247.507779 249.46  L 248.925791 249.46  L 250.343802 249.46  L 251.761813 249.46  L 253.179825 249.46  L 254.597836 249.46  L 256.015847 249.46  L 257.433859 249.46  L 258.85187 249.46  L 260.269881 249.46  L 261.687892 249.46  L 263.105904 249.46  L 264.523915 249.46  L 265.941926 249.46  L 267.359938 249.46  L 268.777949 249.46  L 270.19596 249.46  L 271.613972 249.46  L 273.031983 249.46  L 274.449994 249.46  L 275.868006 249.46  L 277.286017 249.46  L 278.704028 249.46  L 280.12204 249.46  L 281.540051 249.46  L 282.958062 249.46  L 284.376074 249.46  L 285.794085 249.46  L 287.212096 249.46  L 288.630108 249.46  L 290.048119 249.46  L 291.46613 249.46  L 292.884142 249.46  L 294.302153 249.46  L 295.720164 249.46  L 297.138176 249.46  L 298.556187 249.46  L 299.974198 249.46  L 301.39221 249.46  L 302.810221 249.46  L 304.228232 249.46  L 305.646244 249.46  "
           clip-path="url(#p86cf1e085f)"
           style="fill: none; stroke: #a52a2a; stroke-width: 1.5; stroke-linecap: square"
           id="path18" />
      </g>
      <g
         id="line2d_10">
        <path
           d="M 165.263122 320.72  L 165.263122 178.2  "
           clip-path="url(#p86cf1e085f)"
           style="fill: none; stroke-dasharray: 5.55,2.4; stroke-dashoffset: 0; stroke: #808080; stroke-width: 1.5"
           id="path19" />
      </g>
      <g
         id="line2d_11">
        <path
           d="M 305.646244 320.72  L 305.646244 178.2  "
           clip-path="url(#p86cf1e085f)"
           style="fill: none; stroke-dasharray: 5.55,2.4; stroke-dashoffset: 0; stroke: #808080; stroke-width: 1.5"
           id="path20" />
      </g>
      <g
         id="patch_10">
        <path
           d="M 24.88 320.72  L 24.88 178.2  "
           style="fill: none; stroke: #000000; stroke-width: 0.8; stroke-linejoin: miter; stroke-linecap: square"
           id="path21" />
      </g>
      <g
         id="patch_11">
        <path
           d="M 24.88 320.72  L 450 320.72  "
           style="fill: none; stroke: #000000; stroke-width: 0.8; stroke-linejoin: miter; stroke-linecap: square"
           id="path22" />
      </g>
      <g
         id="patch_9-7-6"
         transform="matrix(-0.4654503,1.0430602,-0.87751723,-0.53100538,353.29024,47.584114)"
         style="stroke-linecap:butt;stroke-linejoin:round">
        <path
           d="m 125.54618,141.33257 q -7.73111,4.06172 -14.68656,7.71596"
           style="fill:none;stroke:#000000;stroke-width:0.957938;stroke-linecap:round;stroke-linejoin:round"
           id="path31-1-4" />
        <path
           d="m 116.23184,148.93546 -5.36534,0.11482 3.12735,-4.36116"
           style="fill:none;stroke:#000000;stroke-linecap:round;stroke-linejoin:round"
           id="path32-5-4" />
      </g>
    </g>
  </g>
  <text
     xml:space="preserve"
     style="font-size:17px;font-family:'Times New Roman';-inkscape-font-specification:'Times New Roman, ';fill:#000000;fill-opacity:1;stroke-width:1.471;stroke-linecap:butt;stroke-linejoin:round"
     x="398.41571"
     y="74.674606"
     id="text17-8"><tspan
       sodipodi:role="line"
       id="tspan17-8"
       style="fill:#000000;fill-opacity:1;stroke-width:1.471"
       x="398.41571"
       y="74.674606">RX</tspan></text>
  <text
     xml:space="preserve"
     style="font-size:17px;font-family:'Times New Roman';-inkscape-font-specification:'Times New Roman, ';fill:#0202ff;fill-opacity:1;stroke-width:1.471;stroke-linecap:butt;stroke-linejoin:round"
     x="259.04779"
     y="15.65266"
     id="text17"><tspan
       sodipodi:role="line"
       id="tspan17"
       style="fill:#0202ff;fill-opacity:1;stroke-width:1.471"
       x="259.04779"
       y="15.65266">TX</tspan></text>
  <defs
     id="defs23">
    <clipPath
       id="p155986768e">
      <rect
         x="24.88"
         y="10.8"
         width="425.12"
         height="142.52"
         id="rect22" />
    </clipPath>
    <clipPath
       id="p86cf1e085f">
      <rect
         x="24.88"
         y="178.2"
         width="425.12"
         height="142.52"
         id="rect23" />
    </clipPath>
  </defs>
  <ellipse
     style="fill:#008000;stroke-width:1.471;opacity:0;stroke:#000000;stroke-opacity:1;filter:url(#filter25)"
     id="path23"
     cx="412.29733"
     cy="20.432434"
     rx="29.918919"
     ry="21.745945" />
  <ellipse
     style="opacity:1;fill:#ffffff;fill-opacity:0;stroke:#000000;stroke-width:1.471;stroke-linecap:round;stroke-opacity:1;stroke-dasharray:5.88399983,5.88399983;stroke-dashoffset:0"
     id="path26"
     cx="394.63428"
     cy="31.550102"
     rx="36.486488"
     ry="23.643244" />
</svg>
