<?xml version="1.0" encoding="UTF-8" standalone="no"?>
<svg
   style="fill-opacity:1; color-rendering:auto; color-interpolation:auto; text-rendering:auto; stroke:black; stroke-linecap:square; stroke-miterlimit:10; shape-rendering:auto; stroke-opacity:1; fill:black; stroke-dasharray:none; font-weight:normal; stroke-width:1; font-family:'Dialog'; font-style:normal; stroke-linejoin:miter; font-size:12px; stroke-dashoffset:0; image-rendering:auto;"
   width="1120"
   height="840"
   version="1.1"
   id="svg53"
   sodipodi:docname="发射信号频率.svg"
   inkscape:export-filename="发射信号频率.pdf"
   inkscape:export-xdpi="96"
   inkscape:export-ydpi="96"
   inkscape:version="1.3.2 (091e20e, 2023-11-25, custom)"
   xmlns:inkscape="http://www.inkscape.org/namespaces/inkscape"
   xmlns:sodipodi="http://sodipodi.sourceforge.net/DTD/sodipodi-0.dtd"
   xmlns="http://www.w3.org/2000/svg"
   xmlns:svg="http://www.w3.org/2000/svg">
  <sodipodi:namedview
     id="namedview53"
     pagecolor="#ffffff"
     bordercolor="#000000"
     borderopacity="0.25"
     inkscape:showpageshadow="2"
     inkscape:pageopacity="0.0"
     inkscape:pagecheckerboard="0"
     inkscape:deskcolor="#d1d1d1"
     inkscape:zoom="0.7047619"
     inkscape:cx="559.76351"
     inkscape:cy="420"
     inkscape:window-width="1440"
     inkscape:window-height="830"
     inkscape:window-x="1913"
     inkscape:window-y="-6"
     inkscape:window-maximized="1"
     inkscape:current-layer="svg53" />
  <!--Generated by the Batik Graphics2D SVG Generator-->
  <defs
     id="genericDefs" />
  <g
     id="g53">
    <defs
       id="defs1">
      <clipPath
         clipPathUnits="userSpaceOnUse"
         id="clipPath1">
        <path
           d="M0 0 L1120 0 L1120 840 L0 840 L0 0 Z"
           id="path1" />
      </clipPath>
    </defs>
    <g
       style="fill:white; stroke:white;"
       id="g1">
      <rect
         x="0"
         y="0"
         width="1120"
         style="clip-path:url(#clipPath1); stroke:none;"
         height="840"
         clip-path="url(#clipPath1)"
         id="rect1" />
    </g>
    <g
       style="fill:white; text-rendering:optimizeSpeed; color-rendering:optimizeSpeed; image-rendering:optimizeSpeed; shape-rendering:crispEdges; stroke:white; color-interpolation:sRGB;"
       id="g2">
      <rect
         x="0"
         width="1120"
         height="840"
         y="0"
         style="stroke:none;"
         id="rect2" />
      <path
         style="stroke:none;"
         d="M146 748 L1014 748 L1014 63 L146 63 Z"
         id="path2" />
    </g>
    <g
       style="fill:rgb(38,38,38); text-rendering:geometricPrecision; image-rendering:optimizeQuality; color-rendering:optimizeQuality; stroke-linejoin:round; stroke:rgb(38,38,38); color-interpolation:linearRGB; stroke-width:1.3333;"
       id="g17">
      <line
         y2="748"
         style="fill:none;"
         x1="146"
         x2="1014"
         y1="748"
         id="line2" />
      <line
         y2="63"
         style="fill:none;"
         x1="146"
         x2="1014"
         y1="63"
         id="line3" />
      <line
         y2="739.32"
         style="fill:none;"
         x1="146"
         x2="146"
         y1="748"
         id="line4" />
      <line
         y2="739.32"
         style="fill:none;"
         x1="290.6667"
         x2="290.6667"
         y1="748"
         id="line5" />
      <line
         y2="739.32"
         style="fill:none;"
         x1="435.3333"
         x2="435.3333"
         y1="748"
         id="line6" />
      <line
         y2="739.32"
         style="fill:none;"
         x1="580"
         x2="580"
         y1="748"
         id="line7" />
      <line
         y2="739.32"
         style="fill:none;"
         x1="724.6667"
         x2="724.6667"
         y1="748"
         id="line8" />
      <line
         y2="739.32"
         style="fill:none;"
         x1="869.3333"
         x2="869.3333"
         y1="748"
         id="line9" />
      <line
         y2="739.32"
         style="fill:none;"
         x1="1014"
         x2="1014"
         y1="748"
         id="line10" />
      <line
         y2="71.68"
         style="fill:none;"
         x1="146"
         x2="146"
         y1="63"
         id="line11" />
      <line
         y2="71.68"
         style="fill:none;"
         x1="290.6667"
         x2="290.6667"
         y1="63"
         id="line12" />
      <line
         y2="71.68"
         style="fill:none;"
         x1="435.3333"
         x2="435.3333"
         y1="63"
         id="line13" />
      <line
         y2="71.68"
         style="fill:none;"
         x1="580"
         x2="580"
         y1="63"
         id="line14" />
      <line
         y2="71.68"
         style="fill:none;"
         x1="724.6667"
         x2="724.6667"
         y1="63"
         id="line15" />
      <line
         y2="71.68"
         style="fill:none;"
         x1="869.3333"
         x2="869.3333"
         y1="63"
         id="line16" />
      <line
         y2="71.68"
         style="fill:none;"
         x1="1014"
         x2="1014"
         y1="63"
         id="line17" />
    </g>
    <g
       transform="translate(146,758.6667)"
       style="font-size:26.6667px; fill:rgb(38,38,38); text-rendering:geometricPrecision; color-rendering:optimizeQuality; image-rendering:optimizeQuality; stroke:rgb(38,38,38); color-interpolation:linearRGB;"
       id="g18">
      <path
         style="stroke:none;"
         d="M-6.375 17.4688 Q-6.375 14.0469 -5.6719 11.9531 Q-4.9688 9.8594 -3.5781 8.7266 Q-2.1875 7.5938 -0.0781 7.5938 Q1.4844 7.5938 2.6562 8.2188 Q3.8281 8.8438 4.5938 10.0234 Q5.3594 11.2031 5.7891 12.8984 Q6.2188 14.5938 6.2188 17.4688 Q6.2188 20.875 5.5234 22.9609 Q4.8281 25.0469 3.4375 26.1875 Q2.0469 27.3281 -0.0781 27.3281 Q-2.875 27.3281 -4.4688 25.3281 Q-6.375 22.9062 -6.375 17.4688 ZM-3.9375 17.4688 Q-3.9375 22.2344 -2.8281 23.8047 Q-1.7188 25.375 -0.0781 25.375 Q1.5625 25.375 2.6719 23.7969 Q3.7812 22.2188 3.7812 17.4688 Q3.7812 12.7031 2.6719 11.1328 Q1.5625 9.5625 -0.1094 9.5625 Q-1.7344 9.5625 -2.7188 10.9375 Q-3.9375 12.7031 -3.9375 17.4688 Z"
         id="path17" />
    </g>
    <g
       transform="translate(290.6667,758.6667)"
       style="font-size:26.6667px; fill:rgb(38,38,38); text-rendering:geometricPrecision; color-rendering:optimizeQuality; image-rendering:optimizeQuality; stroke:rgb(38,38,38); color-interpolation:linearRGB;"
       id="g19">
      <path
         style="stroke:none;"
         d="M2.5625 27 L0.1875 27 L0.1875 11.875 Q-0.6719 12.7031 -2.0625 13.5156 Q-3.4531 14.3281 -4.5625 14.7344 L-4.5625 12.4375 Q-2.5625 11.5156 -1.0781 10.1797 Q0.4062 8.8438 1.0312 7.5938 L2.5625 7.5938 L2.5625 27 Z"
         id="path18" />
    </g>
    <g
       transform="translate(435.3333,758.6667)"
       style="font-size:26.6667px; fill:rgb(38,38,38); text-rendering:geometricPrecision; color-rendering:optimizeQuality; image-rendering:optimizeQuality; stroke:rgb(38,38,38); color-interpolation:linearRGB;"
       id="g20">
      <path
         style="stroke:none;"
         d="M6.0938 24.7188 L6.0938 27 L-6.6875 27 Q-6.7031 26.1406 -6.4062 25.3594 Q-5.9219 24.0469 -4.8438 22.7812 Q-3.7656 21.5156 -1.7344 19.8594 Q1.4062 17.2656 2.5156 15.7578 Q3.625 14.25 3.625 12.9062 Q3.625 11.5 2.6172 10.5312 Q1.6094 9.5625 -0.0156 9.5625 Q-1.7188 9.5625 -2.75 10.5859 Q-3.7812 11.6094 -3.7969 13.4375 L-6.2344 13.1875 Q-5.9844 10.4531 -4.3516 9.0234 Q-2.7188 7.5938 0.0469 7.5938 Q2.8281 7.5938 4.4453 9.1328 Q6.0625 10.6719 6.0625 12.9531 Q6.0625 14.125 5.5859 15.2422 Q5.1094 16.3594 4.0156 17.6016 Q2.9219 18.8438 0.3594 21 Q-1.7812 22.7969 -2.3828 23.4375 Q-2.9844 24.0781 -3.3906 24.7188 L6.0938 24.7188 Z"
         id="path19" />
    </g>
    <g
       transform="translate(580,758.6667)"
       style="font-size:26.6667px; fill:rgb(38,38,38); text-rendering:geometricPrecision; color-rendering:optimizeQuality; image-rendering:optimizeQuality; stroke:rgb(38,38,38); color-interpolation:linearRGB;"
       id="g21">
      <path
         style="stroke:none;"
         d="M-6.3594 21.8906 L-4 21.5781 Q-3.5781 23.5938 -2.6016 24.4844 Q-1.625 25.375 -0.2031 25.375 Q1.4688 25.375 2.6172 24.2188 Q3.7656 23.0625 3.7656 21.3438 Q3.7656 19.7031 2.7031 18.6484 Q1.6406 17.5938 -0.0156 17.5938 Q-0.6875 17.5938 -1.6875 17.8438 L-1.4219 15.7656 Q-1.1875 15.7969 -1.0469 15.7969 Q0.4688 15.7969 1.6875 15.0078 Q2.9062 14.2188 2.9062 12.5625 Q2.9062 11.2656 2.0234 10.4062 Q1.1406 9.5469 -0.2656 9.5469 Q-1.6406 9.5469 -2.5625 10.4141 Q-3.4844 11.2812 -3.75 13.0312 L-6.125 12.6094 Q-5.6875 10.2188 -4.1484 8.9062 Q-2.6094 7.5938 -0.3125 7.5938 Q1.2656 7.5938 2.6016 8.2734 Q3.9375 8.9531 4.6406 10.125 Q5.3438 11.2969 5.3438 12.6094 Q5.3438 13.875 4.6719 14.8984 Q4 15.9219 2.6719 16.5312 Q4.3906 16.9219 5.3438 18.1719 Q6.2969 19.4219 6.2969 21.2969 Q6.2969 23.8281 4.4453 25.5859 Q2.5938 27.3438 -0.2188 27.3438 Q-2.7656 27.3438 -4.4453 25.8281 Q-6.125 24.3125 -6.3594 21.8906 Z"
         id="path20" />
    </g>
    <g
       transform="translate(724.6667,758.6667)"
       style="font-size:26.6667px; fill:rgb(38,38,38); text-rendering:geometricPrecision; color-rendering:optimizeQuality; image-rendering:optimizeQuality; stroke:rgb(38,38,38); color-interpolation:linearRGB;"
       id="g22">
      <path
         style="stroke:none;"
         d="M1.2344 27 L1.2344 22.375 L-7.1562 22.375 L-7.1562 20.2031 L1.6562 7.6719 L3.5938 7.6719 L3.5938 20.2031 L6.2188 20.2031 L6.2188 22.375 L3.5938 22.375 L3.5938 27 L1.2344 27 ZM1.2344 20.2031 L1.2344 11.4844 L-4.8281 20.2031 L1.2344 20.2031 Z"
         id="path21" />
    </g>
    <g
       transform="translate(869.3333,758.6667)"
       style="font-size:26.6667px; fill:rgb(38,38,38); text-rendering:geometricPrecision; color-rendering:optimizeQuality; image-rendering:optimizeQuality; stroke:rgb(38,38,38); color-interpolation:linearRGB;"
       id="g23">
      <path
         style="stroke:none;"
         d="M-6.375 21.9375 L-3.8906 21.7188 Q-3.6094 23.5469 -2.6016 24.4609 Q-1.5938 25.375 -0.1719 25.375 Q1.5469 25.375 2.7344 24.0859 Q3.9219 22.7969 3.9219 20.6562 Q3.9219 18.625 2.7812 17.4531 Q1.6406 16.2812 -0.2031 16.2812 Q-1.3594 16.2812 -2.2812 16.8047 Q-3.2031 17.3281 -3.7344 18.1562 L-5.9531 17.8594 L-4.0781 7.9375 L5.5312 7.9375 L5.5312 10.2031 L-2.1875 10.2031 L-3.2344 15.3906 Q-1.4844 14.1875 0.4219 14.1875 Q2.9531 14.1875 4.6953 15.9375 Q6.4375 17.6875 6.4375 20.4531 Q6.4375 23.0781 4.9062 24.9844 Q3.0469 27.3281 -0.1719 27.3281 Q-2.8125 27.3281 -4.4766 25.8516 Q-6.1406 24.375 -6.375 21.9375 Z"
         id="path22" />
    </g>
    <g
       transform="translate(1014,758.6667)"
       style="font-size:26.6667px; fill:rgb(38,38,38); text-rendering:geometricPrecision; color-rendering:optimizeQuality; image-rendering:optimizeQuality; stroke:rgb(38,38,38); color-interpolation:linearRGB;"
       id="g24">
      <path
         style="stroke:none;"
         d="M5.9375 12.4062 L3.5781 12.5938 Q3.2656 11.1875 2.6719 10.5625 Q1.7188 9.5469 0.3125 9.5469 Q-0.8281 9.5469 -1.6875 10.1719 Q-2.8125 11 -3.4531 12.5625 Q-4.0938 14.125 -4.125 17.0312 Q-3.2656 15.7344 -2.0312 15.1016 Q-0.7969 14.4688 0.5625 14.4688 Q2.9375 14.4688 4.6094 16.2109 Q6.2812 17.9531 6.2812 20.7188 Q6.2812 22.5469 5.4922 24.1094 Q4.7031 25.6719 3.3359 26.5 Q1.9688 27.3281 0.2188 27.3281 Q-2.7344 27.3281 -4.6094 25.1484 Q-6.4844 22.9688 -6.4844 17.9531 Q-6.4844 12.3594 -4.4219 9.8125 Q-2.6094 7.5938 0.4531 7.5938 Q2.7344 7.5938 4.1875 8.875 Q5.6406 10.1562 5.9375 12.4062 ZM-3.75 20.7344 Q-3.75 21.9688 -3.2344 23.0859 Q-2.7188 24.2031 -1.7812 24.7891 Q-0.8438 25.375 0.1875 25.375 Q1.6875 25.375 2.7656 24.1641 Q3.8438 22.9531 3.8438 20.875 Q3.8438 18.8594 2.7812 17.7109 Q1.7188 16.5625 0.0938 16.5625 Q-1.5156 16.5625 -2.6328 17.7109 Q-3.75 18.8594 -3.75 20.7344 Z"
         id="path23" />
    </g>
    <g
       transform="translate(580.0004,794.3333)"
       style="font-size:29.3333px; fill:rgb(38,38,38); text-rendering:geometricPrecision; color-rendering:optimizeQuality; image-rendering:optimizeQuality; stroke:rgb(38,38,38); color-interpolation:linearRGB;"
       id="g25">
      <path
         style="stroke:none;"
         d="M-9.1094 13.6875 Q-9.1094 9.2656 -9.2188 6.3281 L-6.3906 7.7969 L-7.5156 8.5938 L-7.5156 13.6875 L-5.8281 13.6875 L-4.3438 12.2188 L-2.2031 14.3594 L-7.5156 14.3594 L-7.5156 29.5469 Q-7.5156 31.7031 -10.0156 32.6094 Q-10.125 30.9062 -13.75 30.1094 L-13.75 29.5469 Q-10.6875 30 -9.8984 29.8828 Q-9.1094 29.7656 -9.1094 28.5312 L-9.1094 14.3594 L-15 14.3594 Q-16.4688 14.3594 -17.7188 14.7031 L-18.7344 13.6875 L-9.1094 13.6875 ZM-16.4688 17.2031 Q-13.5312 19.2344 -13.0156 20.0312 Q-12.5 20.8281 -12.5 21.2812 Q-12.5 21.8438 -13.0156 22.5781 Q-13.5312 23.3125 -13.75 23.3125 Q-14.0938 23.3125 -14.4375 21.9531 Q-15 19.9219 -16.8125 17.5312 L-16.4688 17.2031 ZM-25.3125 11.1875 L-25.3125 17.9844 L-20.6562 17.9844 L-20.6562 11.1875 L-25.3125 11.1875 ZM-25.3125 18.6719 L-25.3125 25.9219 L-20.6562 25.9219 L-20.6562 18.6719 L-25.3125 18.6719 ZM-19.0781 20.9375 Q-19.0781 26.375 -18.9688 27.9531 L-20.6562 28.8594 L-20.6562 26.5938 L-25.3125 26.5938 L-25.3125 28.9844 L-27 29.8906 Q-26.8906 26.2656 -26.8906 19.0156 Q-26.8906 11.7656 -27 9.6094 L-25.1875 10.5156 L-20.8906 10.5156 L-19.9844 9.375 L-18.1719 10.8594 L-19.0781 11.6406 L-19.0781 20.9375 ZM9.582 27.625 Q9.6914 24 9.6914 20.4297 Q9.6914 16.8594 9.582 13.3438 L11.2695 14.3594 L16.832 14.3594 L17.957 13.2344 L19.4258 14.7031 L18.5195 15.5 Q18.5195 22.9688 18.6445 26.4844 L17.0508 27.3906 L17.0508 25.5781 L11.1602 25.5781 L11.1602 26.8281 L9.582 27.625 ZM11.1602 15.0469 L11.1602 19.4688 L17.0508 19.4688 L17.0508 15.0469 L11.1602 15.0469 ZM11.1602 20.1406 L11.1602 24.9062 L17.0508 24.9062 L17.0508 20.1406 L11.1602 20.1406 ZM5.6133 6.4375 Q8.2227 8.1406 8.6758 8.8203 Q9.1289 9.5 9.1289 9.9531 Q9.1289 10.625 8.6758 11.25 Q8.2227 11.875 8.0977 11.875 Q7.7695 11.875 7.4258 10.625 Q6.8633 8.9219 5.2695 6.7812 L5.6133 6.4375 ZM4.9258 28.0781 Q4.9258 29.8906 5.0508 31.7031 L3.2383 32.375 Q3.3477 30.6875 3.3477 21.1641 Q3.3477 11.6406 3.2383 9.9531 L5.957 11.3125 L4.9258 11.9844 L4.9258 28.0781 ZM18.9727 29.4375 Q22.5977 30 23.0508 29.8281 Q23.5039 29.6562 23.5039 28.8594 L23.5039 9.8281 L14.4414 9.8281 Q12.9727 9.8281 11.7227 10.1719 L10.707 9.1562 L23.2852 9.1562 L24.4102 8.0156 L26.0039 9.6094 L25.0977 10.2812 L25.0977 28.9844 Q25.0977 30.4531 24.5898 31.1328 Q24.082 31.8125 22.4883 32.5 Q21.582 30.5625 18.9727 29.8906 L18.9727 29.4375 Z"
         id="path24" />
    </g>
    <g
       transform="translate(944,829)"
       style="font-size:26.6667px; fill:rgb(38,38,38); text-rendering:geometricPrecision; image-rendering:optimizeQuality; color-rendering:optimizeQuality; font-family:'mwb_cmsy10'; stroke:rgb(38,38,38); color-interpolation:linearRGB;"
       id="g26">
      <path
         style="stroke:none;"
         d="M3.9688 -0.7812 Q3.9688 -0.9844 4.0938 -1.1562 L9.7188 -6.75 L4.0938 -12.3594 Q3.9688 -12.5 3.9688 -12.7188 Q3.9688 -12.9219 4.125 -13.0938 Q4.2812 -13.2656 4.5156 -13.2656 Q4.6875 -13.2656 4.9219 -13.0938 L10.5 -7.5 L16.0781 -13.0938 Q16.2969 -13.2656 16.4688 -13.2656 Q16.6875 -13.2656 16.8438 -13.1094 Q17 -12.9531 17 -12.7188 Q17 -12.5 16.875 -12.3594 L11.2656 -6.75 L16.875 -1.1562 Q17 -0.9844 17 -0.7812 Q17 -0.5469 16.8438 -0.3906 Q16.6875 -0.2344 16.4688 -0.2344 Q16.2656 -0.2344 16.0781 -0.4375 L10.5 -6 L4.9219 -0.4375 Q4.7188 -0.2344 4.5156 -0.2344 Q4.2812 -0.2344 4.125 -0.4062 Q3.9688 -0.5781 3.9688 -0.7812 Z"
         id="path25" />
    </g>
    <g
       transform="translate(965,829)"
       style="font-size:26.6667px; fill:rgb(38,38,38); text-rendering:geometricPrecision; color-rendering:optimizeQuality; image-rendering:optimizeQuality; stroke:rgb(38,38,38); color-interpolation:linearRGB;"
       id="g27">
      <path
         style="stroke:none;"
         d="M10.0625 0 L7.6875 0 L7.6875 -15.125 Q6.8281 -14.2969 5.4375 -13.4844 Q4.0469 -12.6719 2.9375 -12.2656 L2.9375 -14.5625 Q4.9375 -15.4844 6.4219 -16.8203 Q7.9062 -18.1562 8.5312 -19.4062 L10.0625 -19.4062 L10.0625 0 ZM15.9499 -9.5312 Q15.9499 -12.9531 16.6531 -15.0469 Q17.3562 -17.1406 18.7468 -18.2734 Q20.1374 -19.4062 22.2468 -19.4062 Q23.8093 -19.4062 24.9812 -18.7812 Q26.1531 -18.1562 26.9187 -16.9766 Q27.6843 -15.7969 28.114 -14.1016 Q28.5437 -12.4062 28.5437 -9.5312 Q28.5437 -6.125 27.8484 -4.0391 Q27.1531 -1.9531 25.7624 -0.8125 Q24.3718 0.3281 22.2468 0.3281 Q19.4499 0.3281 17.8562 -1.6719 Q15.9499 -4.0938 15.9499 -9.5312 ZM18.3874 -9.5312 Q18.3874 -4.7656 19.4968 -3.1953 Q20.6062 -1.625 22.2468 -1.625 Q23.8874 -1.625 24.9968 -3.2031 Q26.1062 -4.7812 26.1062 -9.5312 Q26.1062 -14.2969 24.9968 -15.8672 Q23.8874 -17.4375 22.2156 -17.4375 Q20.5906 -17.4375 19.6062 -16.0625 Q18.3874 -14.2969 18.3874 -9.5312 Z"
         id="path26" />
    </g>
    <g
       transform="translate(995,816)"
       style="font-size:21.3333px; fill:rgb(38,38,38); text-rendering:geometricPrecision; color-rendering:optimizeQuality; image-rendering:optimizeQuality; stroke:rgb(38,38,38); color-interpolation:linearRGB;"
       id="g28">
      <path
         style="stroke:none;"
         d="M0.6719 -4.5156 L0.6719 -6.375 L6.3438 -6.375 L6.3438 -4.5156 L0.6719 -4.5156 ZM7.9722 -3.9375 L9.9097 -4.1094 Q10.1285 -2.6875 10.9097 -1.9766 Q11.691 -1.2656 12.8004 -1.2656 Q14.1285 -1.2656 15.0504 -2.2656 Q15.9722 -3.2656 15.9722 -4.9375 Q15.9722 -6.5156 15.0894 -7.4297 Q14.2066 -8.3438 12.7691 -8.3438 Q11.8785 -8.3438 11.1597 -7.9375 Q10.441 -7.5312 10.0347 -6.875 L8.3004 -7.1094 L9.7535 -14.8281 L17.2222 -14.8281 L17.2222 -13.0625 L11.2222 -13.0625 L10.4254 -9.0312 Q11.7691 -9.9688 13.2535 -9.9688 Q15.2222 -9.9688 16.5816 -8.6016 Q17.941 -7.2344 17.941 -5.0938 Q17.941 -3.0625 16.7535 -1.5625 Q15.3004 0.25 12.8004 0.25 Q10.7535 0.25 9.4566 -0.8984 Q8.1597 -2.0469 7.9722 -3.9375 Z"
         id="path27" />
    </g>
    <g
       style="fill:rgb(38,38,38); text-rendering:geometricPrecision; image-rendering:optimizeQuality; color-rendering:optimizeQuality; stroke-linejoin:round; stroke:rgb(38,38,38); color-interpolation:linearRGB; stroke-width:1.3333;"
       id="g41">
      <line
         y2="63"
         style="fill:none;"
         x1="146"
         x2="146"
         y1="748"
         id="line28" />
      <line
         y2="63"
         style="fill:none;"
         x1="1014"
         x2="1014"
         y1="748"
         id="line29" />
      <line
         y2="748"
         style="fill:none;"
         x1="146"
         x2="154.68"
         y1="748"
         id="line30" />
      <line
         y2="611"
         style="fill:none;"
         x1="146"
         x2="154.68"
         y1="611"
         id="line31" />
      <line
         y2="474"
         style="fill:none;"
         x1="146"
         x2="154.68"
         y1="474"
         id="line32" />
      <line
         y2="337"
         style="fill:none;"
         x1="146"
         x2="154.68"
         y1="337"
         id="line33" />
      <line
         y2="200"
         style="fill:none;"
         x1="146"
         x2="154.68"
         y1="200"
         id="line34" />
      <line
         y2="63"
         style="fill:none;"
         x1="146"
         x2="154.68"
         y1="63"
         id="line35" />
      <line
         y2="748"
         style="fill:none;"
         x1="1014"
         x2="1005.32"
         y1="748"
         id="line36" />
      <line
         y2="611"
         style="fill:none;"
         x1="1014"
         x2="1005.32"
         y1="611"
         id="line37" />
      <line
         y2="474"
         style="fill:none;"
         x1="1014"
         x2="1005.32"
         y1="474"
         id="line38" />
      <line
         y2="337"
         style="fill:none;"
         x1="1014"
         x2="1005.32"
         y1="337"
         id="line39" />
      <line
         y2="200"
         style="fill:none;"
         x1="1014"
         x2="1005.32"
         y1="200"
         id="line40" />
      <line
         y2="63"
         style="fill:none;"
         x1="1014"
         x2="1005.32"
         y1="63"
         id="line41" />
    </g>
    <g
       transform="translate(135.3333,748)"
       style="font-size:26.6667px; fill:rgb(38,38,38); text-rendering:geometricPrecision; color-rendering:optimizeQuality; image-rendering:optimizeQuality; stroke:rgb(38,38,38); color-interpolation:linearRGB;"
       id="g42">
      <path
         style="stroke:none;"
         d="M-13.875 0.9688 Q-13.875 -2.4531 -13.1719 -4.5469 Q-12.4688 -6.6406 -11.0781 -7.7734 Q-9.6875 -8.9062 -7.5781 -8.9062 Q-6.0156 -8.9062 -4.8438 -8.2812 Q-3.6719 -7.6562 -2.9062 -6.4766 Q-2.1406 -5.2969 -1.7109 -3.6016 Q-1.2812 -1.9062 -1.2812 0.9688 Q-1.2812 4.375 -1.9766 6.4609 Q-2.6719 8.5469 -4.0625 9.6875 Q-5.4531 10.8281 -7.5781 10.8281 Q-10.375 10.8281 -11.9688 8.8281 Q-13.875 6.4062 -13.875 0.9688 ZM-11.4375 0.9688 Q-11.4375 5.7344 -10.3281 7.3047 Q-9.2188 8.875 -7.5781 8.875 Q-5.9375 8.875 -4.8281 7.2969 Q-3.7188 5.7188 -3.7188 0.9688 Q-3.7188 -3.7969 -4.8281 -5.3672 Q-5.9375 -6.9375 -7.6094 -6.9375 Q-9.2344 -6.9375 -10.2188 -5.5625 Q-11.4375 -3.7969 -11.4375 0.9688 Z"
         id="path41" />
    </g>
    <g
       transform="translate(135.3333,611)"
       style="font-size:26.6667px; fill:rgb(38,38,38); text-rendering:geometricPrecision; color-rendering:optimizeQuality; image-rendering:optimizeQuality; stroke:rgb(38,38,38); color-interpolation:linearRGB;"
       id="g43">
      <path
         style="stroke:none;"
         d="M-36.875 0.9688 Q-36.875 -2.4531 -36.1719 -4.5469 Q-35.4688 -6.6406 -34.0781 -7.7734 Q-32.6875 -8.9062 -30.5781 -8.9062 Q-29.0156 -8.9062 -27.8438 -8.2812 Q-26.6719 -7.6562 -25.9062 -6.4766 Q-25.1406 -5.2969 -24.7109 -3.6016 Q-24.2812 -1.9062 -24.2812 0.9688 Q-24.2812 4.375 -24.9766 6.4609 Q-25.6719 8.5469 -27.0625 9.6875 Q-28.4531 10.8281 -30.5781 10.8281 Q-33.375 10.8281 -34.9688 8.8281 Q-36.875 6.4062 -36.875 0.9688 ZM-34.4375 0.9688 Q-34.4375 5.7344 -33.3281 7.3047 Q-32.2188 8.875 -30.5781 8.875 Q-28.9375 8.875 -27.8281 7.2969 Q-26.7188 5.7188 -26.7188 0.9688 Q-26.7188 -3.7969 -27.8281 -5.3672 Q-28.9375 -6.9375 -30.6094 -6.9375 Q-32.2344 -6.9375 -33.2188 -5.5625 Q-34.4375 -3.7969 -34.4375 0.9688 ZM-20.7219 10.5 L-20.7219 7.7969 L-18.0188 7.7969 L-18.0188 10.5 L-20.7219 10.5 ZM-14.6441 5.4375 L-12.1597 5.2188 Q-11.8785 7.0469 -10.8707 7.9609 Q-9.8629 8.875 -8.441 8.875 Q-6.7222 8.875 -5.5347 7.5859 Q-4.3472 6.2969 -4.3472 4.1562 Q-4.3472 2.125 -5.4879 0.9531 Q-6.6285 -0.2188 -8.4722 -0.2188 Q-9.6285 -0.2188 -10.5504 0.3047 Q-11.4722 0.8281 -12.0035 1.6562 L-14.2222 1.3594 L-12.3472 -8.5625 L-2.7379 -8.5625 L-2.7379 -6.2969 L-10.4566 -6.2969 L-11.5035 -1.1094 Q-9.7535 -2.3125 -7.8472 -2.3125 Q-5.316 -2.3125 -3.5738 -0.5625 Q-1.8316 1.1875 -1.8316 3.9531 Q-1.8316 6.5781 -3.3629 8.4844 Q-5.2222 10.8281 -8.441 10.8281 Q-11.0816 10.8281 -12.7457 9.3516 Q-14.4097 7.875 -14.6441 5.4375 Z"
         id="path42" />
    </g>
    <g
       transform="translate(135.3333,474)"
       style="font-size:26.6667px; fill:rgb(38,38,38); text-rendering:geometricPrecision; color-rendering:optimizeQuality; image-rendering:optimizeQuality; stroke:rgb(38,38,38); color-interpolation:linearRGB;"
       id="g44">
      <path
         style="stroke:none;"
         d="M-4.9375 10.5 L-7.3125 10.5 L-7.3125 -4.625 Q-8.1719 -3.7969 -9.5625 -2.9844 Q-10.9531 -2.1719 -12.0625 -1.7656 L-12.0625 -4.0625 Q-10.0625 -4.9844 -8.5781 -6.3203 Q-7.0938 -7.6562 -6.4688 -8.9062 L-4.9375 -8.9062 L-4.9375 10.5 Z"
         id="path43" />
    </g>
    <g
       transform="translate(135.3333,337)"
       style="font-size:26.6667px; fill:rgb(38,38,38); text-rendering:geometricPrecision; color-rendering:optimizeQuality; image-rendering:optimizeQuality; stroke:rgb(38,38,38); color-interpolation:linearRGB;"
       id="g45">
      <path
         style="stroke:none;"
         d="M-27.9375 10.5 L-30.3125 10.5 L-30.3125 -4.625 Q-31.1719 -3.7969 -32.5625 -2.9844 Q-33.9531 -2.1719 -35.0625 -1.7656 L-35.0625 -4.0625 Q-33.0625 -4.9844 -31.5781 -6.3203 Q-30.0938 -7.6562 -29.4688 -8.9062 L-27.9375 -8.9062 L-27.9375 10.5 ZM-20.7219 10.5 L-20.7219 7.7969 L-18.0188 7.7969 L-18.0188 10.5 L-20.7219 10.5 ZM-14.6441 5.4375 L-12.1597 5.2188 Q-11.8785 7.0469 -10.8707 7.9609 Q-9.8629 8.875 -8.441 8.875 Q-6.7222 8.875 -5.5347 7.5859 Q-4.3472 6.2969 -4.3472 4.1562 Q-4.3472 2.125 -5.4879 0.9531 Q-6.6285 -0.2188 -8.4722 -0.2188 Q-9.6285 -0.2188 -10.5504 0.3047 Q-11.4722 0.8281 -12.0035 1.6562 L-14.2222 1.3594 L-12.3472 -8.5625 L-2.7379 -8.5625 L-2.7379 -6.2969 L-10.4566 -6.2969 L-11.5035 -1.1094 Q-9.7535 -2.3125 -7.8472 -2.3125 Q-5.316 -2.3125 -3.5738 -0.5625 Q-1.8316 1.1875 -1.8316 3.9531 Q-1.8316 6.5781 -3.3629 8.4844 Q-5.2222 10.8281 -8.441 10.8281 Q-11.0816 10.8281 -12.7457 9.3516 Q-14.4097 7.875 -14.6441 5.4375 Z"
         id="path44" />
    </g>
    <g
       transform="translate(135.3333,200)"
       style="font-size:26.6667px; fill:rgb(38,38,38); text-rendering:geometricPrecision; color-rendering:optimizeQuality; image-rendering:optimizeQuality; stroke:rgb(38,38,38); color-interpolation:linearRGB;"
       id="g46">
      <path
         style="stroke:none;"
         d="M-1.4062 8.2188 L-1.4062 10.5 L-14.1875 10.5 Q-14.2031 9.6406 -13.9062 8.8594 Q-13.4219 7.5469 -12.3438 6.2812 Q-11.2656 5.0156 -9.2344 3.3594 Q-6.0938 0.7656 -4.9844 -0.7422 Q-3.875 -2.25 -3.875 -3.5938 Q-3.875 -5 -4.8828 -5.9688 Q-5.8906 -6.9375 -7.5156 -6.9375 Q-9.2188 -6.9375 -10.25 -5.9141 Q-11.2812 -4.8906 -11.2969 -3.0625 L-13.7344 -3.3125 Q-13.4844 -6.0469 -11.8516 -7.4766 Q-10.2188 -8.9062 -7.4531 -8.9062 Q-4.6719 -8.9062 -3.0547 -7.3672 Q-1.4375 -5.8281 -1.4375 -3.5469 Q-1.4375 -2.375 -1.9141 -1.2578 Q-2.3906 -0.1406 -3.4844 1.1016 Q-4.5781 2.3438 -7.1406 4.5 Q-9.2812 6.2969 -9.8828 6.9375 Q-10.4844 7.5781 -10.8906 8.2188 L-1.4062 8.2188 Z"
         id="path45" />
    </g>
    <g
       transform="translate(135.3333,63)"
       style="font-size:26.6667px; fill:rgb(38,38,38); text-rendering:geometricPrecision; color-rendering:optimizeQuality; image-rendering:optimizeQuality; stroke:rgb(38,38,38); color-interpolation:linearRGB;"
       id="g47">
      <path
         style="stroke:none;"
         d="M-24.4062 8.2188 L-24.4062 10.5 L-37.1875 10.5 Q-37.2031 9.6406 -36.9062 8.8594 Q-36.4219 7.5469 -35.3438 6.2812 Q-34.2656 5.0156 -32.2344 3.3594 Q-29.0938 0.7656 -27.9844 -0.7422 Q-26.875 -2.25 -26.875 -3.5938 Q-26.875 -5 -27.8828 -5.9688 Q-28.8906 -6.9375 -30.5156 -6.9375 Q-32.2188 -6.9375 -33.25 -5.9141 Q-34.2812 -4.8906 -34.2969 -3.0625 L-36.7344 -3.3125 Q-36.4844 -6.0469 -34.8516 -7.4766 Q-33.2188 -8.9062 -30.4531 -8.9062 Q-27.6719 -8.9062 -26.0547 -7.3672 Q-24.4375 -5.8281 -24.4375 -3.5469 Q-24.4375 -2.375 -24.9141 -1.2578 Q-25.3906 -0.1406 -26.4844 1.1016 Q-27.5781 2.3438 -30.1406 4.5 Q-32.2812 6.2969 -32.8828 6.9375 Q-33.4844 7.5781 -33.8906 8.2188 L-24.4062 8.2188 ZM-20.7219 10.5 L-20.7219 7.7969 L-18.0188 7.7969 L-18.0188 10.5 L-20.7219 10.5 ZM-14.6441 5.4375 L-12.1597 5.2188 Q-11.8785 7.0469 -10.8707 7.9609 Q-9.8629 8.875 -8.441 8.875 Q-6.7222 8.875 -5.5347 7.5859 Q-4.3472 6.2969 -4.3472 4.1562 Q-4.3472 2.125 -5.4879 0.9531 Q-6.6285 -0.2188 -8.4722 -0.2188 Q-9.6285 -0.2188 -10.5504 0.3047 Q-11.4722 0.8281 -12.0035 1.6562 L-14.2222 1.3594 L-12.3472 -8.5625 L-2.7379 -8.5625 L-2.7379 -6.2969 L-10.4566 -6.2969 L-11.5035 -1.1094 Q-9.7535 -2.3125 -7.8472 -2.3125 Q-5.316 -2.3125 -3.5738 -0.5625 Q-1.8316 1.1875 -1.8316 3.9531 Q-1.8316 6.5781 -3.3629 8.4844 Q-5.2222 10.8281 -8.441 10.8281 Q-11.0816 10.8281 -12.7457 9.3516 Q-14.4097 7.875 -14.6441 5.4375 Z"
         id="path46" />
    </g>
    <g
       transform="translate(89.3333,405.4997) rotate(-90)"
       style="font-size:29.3333px; fill:rgb(38,38,38); text-rendering:geometricPrecision; color-rendering:optimizeQuality; image-rendering:optimizeQuality; stroke:rgb(38,38,38); color-interpolation:linearRGB;"
       id="g48">
      <path
         style="stroke:none;"
         d="M-16.8125 -16.2969 L-14.8906 -14.5938 L-15.9062 -14.0312 Q-18.625 -9.8281 -21.0625 -7.9062 Q-23.5 -5.9844 -27.6875 -4.3906 L-27.7969 -4.7344 Q-22.8125 -7.4531 -20.4375 -10.2266 Q-18.0625 -13 -16.8125 -16.2969 ZM-21.3438 -20.375 L-21.3438 -26.8281 Q-21.3438 -28.2969 -21.4531 -30.7969 L-19.0781 -29.7656 L-19.9844 -28.9844 L-19.9844 -25.4688 L-18.1719 -25.4688 L-16.9219 -26.7188 L-15.2188 -24.7812 L-19.9844 -24.7812 L-19.9844 -20.375 L-17.8281 -20.375 L-16.4688 -21.6094 L-14.6562 -19.6875 L-21.3438 -19.6875 L-19.2969 -18.5625 L-20.0938 -17.9844 L-20.0938 -12.2188 L-21.5625 -11.3125 L-21.5625 -19.6875 L-24.2812 -19.6875 Q-25.7656 -19.6875 -27 -19.3438 L-28.0312 -20.375 L-24.9688 -20.375 L-24.9688 -24.6719 Q-24.9688 -26.0312 -25.0781 -27.3906 L-22.7031 -26.375 L-23.6094 -25.5781 L-23.6094 -20.375 L-21.3438 -20.375 ZM-24.5156 -17.5312 L-22.4688 -16.1719 Q-23.2656 -15.9531 -24.5156 -13.7969 Q-25.875 -11.5312 -28.0312 -9.6094 L-28.25 -9.9531 Q-25.7656 -13.3438 -24.5156 -17.5312 ZM-14.2031 -10.625 Q-14.0938 -13.5781 -14.0938 -17.4844 Q-14.0938 -21.3906 -14.2031 -24.7812 L-12.625 -23.875 L-10.4688 -23.875 Q-10.0156 -27.0469 -9.9062 -28.2969 L-12.3906 -28.2969 Q-13.8594 -28.2969 -15.1094 -27.9531 L-16.125 -28.9844 L-5.0312 -28.9844 L-3.5625 -30.3438 L-1.625 -28.2969 L-7.75 -28.2969 Q-8.5469 -27.3906 -9.9062 -23.875 L-4.9219 -23.875 L-4.0156 -24.9062 L-2.3125 -23.5469 L-3.2188 -22.8594 L-3.2188 -15.9531 Q-3.2188 -14.0312 -3.1094 -11.9844 L-4.6875 -11.0781 L-4.6875 -23.2031 L-12.625 -23.2031 L-12.625 -11.6406 L-14.2031 -10.625 ZM-6.8438 -20.0312 L-7.8594 -19.2344 Q-7.8594 -13.7969 -8.5938 -11.4766 Q-9.3281 -9.1562 -11.4297 -7.4531 Q-13.5312 -5.75 -17.8281 -4.3906 L-17.9375 -4.7344 Q-13.4062 -6.7656 -11.6562 -8.8125 Q-9.9062 -10.8594 -9.6172 -14.1953 Q-9.3281 -17.5312 -9.4531 -21.2812 L-6.8438 -20.0312 ZM-8.0938 -10.9688 Q-3.6719 -8.9219 -2.9375 -8.1328 Q-2.2031 -7.3438 -2.2031 -6.5469 Q-2.2031 -5.9844 -2.4297 -5.3594 Q-2.6562 -4.7344 -2.875 -4.7344 Q-3.1094 -4.7344 -3.3281 -5.1875 Q-3.8906 -6.2031 -4.8594 -7.3984 Q-5.8281 -8.5938 -8.3125 -10.625 L-8.0938 -10.9688 ZM3.8008 -23.875 L4.0195 -24.2188 Q6.0664 -23.5469 6.8555 -22.9766 Q7.6445 -22.4062 7.6445 -21.7344 Q7.6445 -21.3906 7.3633 -20.7109 Q7.082 -20.0312 6.8633 -20.0312 Q6.6289 -20.0312 6.2852 -20.8281 Q5.6133 -22.0625 3.8008 -23.875 ZM2.332 -15.3906 Q3.8008 -15.7188 8.8945 -18.6719 L9.1289 -18.3281 Q7.4258 -17.0781 5.8945 -15.7812 Q4.3633 -14.4844 3.8008 -13.4531 L2.332 -15.3906 ZM23.3945 -22.6406 Q21.582 -21.2812 19.207 -19.6875 L18.9727 -20.0312 Q21.4727 -22.4062 22.7227 -24.7812 L24.5352 -22.9688 L23.3945 -22.6406 ZM19.4258 -18.3281 L19.5508 -18.6719 Q23.5039 -17.6562 24.1836 -17.0312 Q24.8633 -16.4062 24.8633 -15.6094 Q24.8633 -15.0469 24.6992 -14.5391 Q24.5352 -14.0312 24.3008 -14.0312 Q23.957 -14.0312 23.3945 -15.1562 Q22.3789 -16.75 19.4258 -18.3281 ZM14.1133 -24.6719 Q11.1602 -21.9531 10.2539 -21.2812 Q12.5195 -21.2812 15.2383 -21.3906 Q16.5977 -22.8594 17.2852 -24.3281 L19.0977 -22.6406 Q18.1914 -22.4062 15.4727 -19.7969 Q12.7539 -17.2031 11.0508 -15.8438 Q14.1133 -15.9531 17.2852 -16.0625 Q16.832 -16.8594 15.9258 -18.1094 L16.1445 -18.3281 Q18.1914 -17.2031 18.8711 -16.5234 Q19.5508 -15.8438 19.5508 -15.3906 Q19.5508 -15.0469 19.0977 -14.3672 Q18.6445 -13.6875 18.4102 -13.6875 Q18.3008 -13.6875 18.1914 -14.0312 Q17.957 -14.7031 17.5039 -15.6094 Q16.3789 -15.5 13.7695 -15.1562 L15.6914 -14.0312 L14.8945 -13.4531 L14.8945 -11.4219 L23.957 -11.4219 L25.4414 -12.8906 L27.4727 -10.7344 L14.8945 -10.7344 Q14.8945 -5.75 15.0195 -4.625 L13.3164 -4.0469 Q13.4258 -7 13.4258 -10.7344 L4.9258 -10.7344 Q3.457 -10.7344 2.207 -10.4062 L1.1914 -11.4219 L13.4258 -11.4219 L13.4258 -15.0469 Q10.9414 -14.7031 9.8008 -13.9062 L8.6758 -15.8438 Q10.1445 -15.8438 11.957 -17.6562 Q13.7695 -19.4688 14.8945 -20.8281 Q10.707 -20.375 9.582 -19.5781 L8.6758 -21.3906 Q9.582 -21.2812 11.0508 -23.2031 Q12.5195 -25.125 12.9727 -26.1406 L6.4102 -26.1406 Q4.9258 -26.1406 3.6914 -25.8125 L2.6602 -26.8281 L13.8789 -26.8281 Q13.6602 -28.75 11.957 -30.5625 L12.1758 -30.7969 Q14.4414 -29.8906 14.957 -29.2656 Q15.4727 -28.6406 15.4727 -28.2969 Q15.4727 -27.625 14.5664 -26.8281 L22.5977 -26.8281 L24.082 -28.1875 L26.0039 -26.1406 L13.6602 -26.1406 L15.1289 -24.9062 L14.1133 -24.6719 Z"
         id="path47" />
    </g>
    <g
       transform="translate(146,57)"
       style="font-size:26.6667px; fill:rgb(38,38,38); text-rendering:geometricPrecision; image-rendering:optimizeQuality; color-rendering:optimizeQuality; font-family:'mwb_cmsy10'; stroke:rgb(38,38,38); color-interpolation:linearRGB;"
       id="g49">
      <path
         style="stroke:none;"
         d="M3.9688 -0.7812 Q3.9688 -0.9844 4.0938 -1.1562 L9.7188 -6.75 L4.0938 -12.3594 Q3.9688 -12.5 3.9688 -12.7188 Q3.9688 -12.9219 4.125 -13.0938 Q4.2812 -13.2656 4.5156 -13.2656 Q4.6875 -13.2656 4.9219 -13.0938 L10.5 -7.5 L16.0781 -13.0938 Q16.2969 -13.2656 16.4688 -13.2656 Q16.6875 -13.2656 16.8438 -13.1094 Q17 -12.9531 17 -12.7188 Q17 -12.5 16.875 -12.3594 L11.2656 -6.75 L16.875 -1.1562 Q17 -0.9844 17 -0.7812 Q17 -0.5469 16.8438 -0.3906 Q16.6875 -0.2344 16.4688 -0.2344 Q16.2656 -0.2344 16.0781 -0.4375 L10.5 -6 L4.9219 -0.4375 Q4.7188 -0.2344 4.5156 -0.2344 Q4.2812 -0.2344 4.125 -0.4062 Q3.9688 -0.5781 3.9688 -0.7812 Z"
         id="path48" />
    </g>
    <g
       transform="translate(167,57)"
       style="font-size:26.6667px; fill:rgb(38,38,38); text-rendering:geometricPrecision; color-rendering:optimizeQuality; image-rendering:optimizeQuality; stroke:rgb(38,38,38); color-interpolation:linearRGB;"
       id="g50">
      <path
         style="stroke:none;"
         d="M10.0625 0 L7.6875 0 L7.6875 -15.125 Q6.8281 -14.2969 5.4375 -13.4844 Q4.0469 -12.6719 2.9375 -12.2656 L2.9375 -14.5625 Q4.9375 -15.4844 6.4219 -16.8203 Q7.9062 -18.1562 8.5312 -19.4062 L10.0625 -19.4062 L10.0625 0 ZM15.9499 -9.5312 Q15.9499 -12.9531 16.6531 -15.0469 Q17.3562 -17.1406 18.7468 -18.2734 Q20.1374 -19.4062 22.2468 -19.4062 Q23.8093 -19.4062 24.9812 -18.7812 Q26.1531 -18.1562 26.9187 -16.9766 Q27.6843 -15.7969 28.114 -14.1016 Q28.5437 -12.4062 28.5437 -9.5312 Q28.5437 -6.125 27.8484 -4.0391 Q27.1531 -1.9531 25.7624 -0.8125 Q24.3718 0.3281 22.2468 0.3281 Q19.4499 0.3281 17.8562 -1.6719 Q15.9499 -4.0938 15.9499 -9.5312 ZM18.3874 -9.5312 Q18.3874 -4.7656 19.4968 -3.1953 Q20.6062 -1.625 22.2468 -1.625 Q23.8874 -1.625 24.9968 -3.2031 Q26.1062 -4.7812 26.1062 -9.5312 Q26.1062 -14.2969 24.9968 -15.8672 Q23.8874 -17.4375 22.2156 -17.4375 Q20.5906 -17.4375 19.6062 -16.0625 Q18.3874 -14.2969 18.3874 -9.5312 Z"
         id="path49" />
    </g>
    <g
       transform="translate(197,44)"
       style="font-size:21.3333px; fill:rgb(38,38,38); text-rendering:geometricPrecision; color-rendering:optimizeQuality; image-rendering:optimizeQuality; stroke:rgb(38,38,38); color-interpolation:linearRGB;"
       id="g51">
      <path
         style="stroke:none;"
         d="M7.8281 0 L5.9844 0 L5.9844 -11.7656 Q5.3125 -11.125 4.2266 -10.4922 Q3.1406 -9.8594 2.2812 -9.5312 L2.2812 -11.3281 Q3.8281 -12.0469 4.9922 -13.0859 Q6.1562 -14.125 6.6406 -15.0938 L7.8281 -15.0938 L7.8281 0 ZM22.3061 -11.3438 L20.4624 -11.2031 Q20.228 -12.2969 19.7749 -12.7812 Q19.0249 -13.5781 17.9311 -13.5781 Q17.0405 -13.5781 16.3686 -13.0781 Q15.5092 -12.4531 15.0014 -11.2344 Q14.4936 -10.0156 14.478 -7.75 Q15.1499 -8.7656 16.1108 -9.2578 Q17.0717 -9.75 18.1342 -9.75 Q19.978 -9.75 21.2749 -8.3906 Q22.5717 -7.0312 22.5717 -4.875 Q22.5717 -3.4688 21.9624 -2.25 Q21.353 -1.0312 20.2827 -0.3906 Q19.2124 0.25 17.8686 0.25 Q15.5561 0.25 14.103 -1.4453 Q12.6499 -3.1406 12.6499 -7.0312 Q12.6499 -11.3906 14.2592 -13.375 Q15.6499 -15.0938 18.0405 -15.0938 Q19.8061 -15.0938 20.9389 -14.1016 Q22.0717 -13.1094 22.3061 -11.3438 ZM14.7592 -4.875 Q14.7592 -3.9219 15.1655 -3.0469 Q15.5717 -2.1719 16.2983 -1.7188 Q17.0249 -1.2656 17.8374 -1.2656 Q18.9936 -1.2656 19.8374 -2.2031 Q20.6811 -3.1406 20.6811 -4.7656 Q20.6811 -6.3281 19.853 -7.2266 Q19.0249 -8.125 17.7592 -8.125 Q16.5092 -8.125 15.6342 -7.2266 Q14.7592 -6.3281 14.7592 -4.875 Z"
         id="path50" />
    </g>
    <g
       style="stroke-linecap:butt; fill:rgb(0,114,189); text-rendering:geometricPrecision; image-rendering:optimizeQuality; color-rendering:optimizeQuality; stroke-linejoin:round; stroke:rgb(0,114,189); color-interpolation:linearRGB; stroke-width:1.3333;"
       id="g52">
      <path
         d="M146 747.4379 L146.8289 746.8774 L147.6577 746.317 L148.4866 745.7565 L149.3155 745.1961 L150.1443 744.6356 L150.9732 744.0752 L151.8021 743.5147 L152.631 742.9543 L153.4598 742.3938 L154.2887 741.8334 L155.1176 741.2729 L155.9464 740.7125 L156.7753 740.152 L157.6042 739.5916 L158.433 739.0311 L159.2619 738.4706 L160.0908 737.9102 L160.9197 737.3497 L161.7485 736.7892 L162.5774 736.2288 L163.4063 735.6683 L164.2351 735.1079 L165.064 734.5474 L165.8929 733.987 L166.7218 733.4265 L167.5506 732.8661 L168.3795 732.3056 L169.2084 731.7452 L170.0372 731.1847 L170.8661 730.6243 L171.695 730.0638 L172.5238 729.5034 L173.3527 728.9429 L174.1816 728.3824 L175.0105 727.822 L175.8393 727.2615 L176.6682 726.7011 L177.4971 726.1406 L178.3259 725.5802 L179.1548 725.0197 L179.9837 724.4593 L180.8125 723.8988 L181.6414 723.3384 L182.4703 722.7779 L183.2991 722.2175 L184.128 721.657 L184.9569 721.0966 L185.7858 720.5361 L186.6146 719.9756 L187.4435 719.4152 L188.2724 718.8547 L189.1012 718.2943 L189.9301 717.7338 L190.759 717.1733 L191.5878 716.6129 L192.4167 716.0524 L193.2456 715.492 L194.0745 714.9315 L194.9033 714.3711 L195.7322 713.8106 L196.5611 713.2502 L197.3899 712.6897 L198.2188 712.1293 L199.0477 711.5688 L199.8766 711.0084 L200.7054 710.4479 L201.5343 709.8875 L202.3632 709.327 L203.192 708.7665 L204.0209 708.2061 L204.8498 707.6456 L205.6786 707.0851 L206.5075 706.5247 L207.3364 705.9643 L208.1653 705.4038 L208.9941 704.8434 L209.823 704.2829 L210.6519 703.7225 L211.4807 703.162 L212.3096 702.6016 L213.1385 702.0411 L213.9673 701.4807 L214.7962 700.9202 L215.6251 700.3597 L216.4539 699.7993 L217.2828 699.2388 L218.1117 698.6783 L218.9406 698.1179 L219.7694 697.5574 L220.5983 696.997 L221.4272 696.4365 L222.256 695.8761 L223.0849 695.3156 L223.9138 694.7552 L224.7427 694.1947 L225.5715 693.6343 L226.4004 693.0738 L227.2293 692.5134 L228.0581 691.9529 L228.887 691.3925 L229.7159 690.832 L230.5447 690.2715 L231.3736 689.7111 L232.2025 689.1506 L233.0314 688.5901 L233.8602 688.0297 L234.6891 687.4692 L235.518 686.9088 L236.3468 686.3483 L237.1757 685.7879 L238.0046 685.2274 L238.8334 684.667 L239.6623 684.1065 L240.4912 683.5461 L241.3201 682.9857 L242.1489 682.4252 L242.9778 681.8647 L243.8067 681.3043 L244.6355 680.7438 L245.4644 680.1833 L246.2933 679.6229 L247.1221 679.0624 L247.951 678.502 L248.7799 677.9415 L249.6087 677.3811 L250.4376 676.8206 L251.2665 676.2602 L252.0954 675.6997 L252.9242 675.1393 L253.7531 674.5788 L254.582 674.0184 L255.4108 673.4579 L256.2397 672.8975 L257.0686 672.337 L257.8975 671.7766 L258.7263 671.2161 L259.5552 670.6556 L260.3841 670.0952 L261.2129 669.5347 L262.0418 668.9742 L262.8707 668.4138 L263.6996 667.8533 L264.5284 667.2929 L265.3573 666.7324 L266.1862 666.172 L267.015 665.6115 L267.8439 665.0511 L268.6728 664.4906 L269.5016 663.9302 L270.3305 663.3698 L271.1594 662.8093 L271.9883 662.2488 L272.8171 661.6884 L273.646 661.1279 L274.4749 660.5674 L275.3037 660.007 L276.1326 659.4465 L276.9615 658.8861 L277.7903 658.3256 L278.6192 657.7652 L279.4481 657.2047 L280.2769 656.6443 L281.1058 656.0838 L281.9347 655.5234 L282.7635 654.9629 L283.5924 654.4025 L284.4213 653.842 L285.2502 653.2816 L286.079 652.7211 L286.9079 652.1606 L287.7368 651.6002 L288.5656 651.0397 L289.3945 650.4792 L290.2234 649.9188 L291.0522 649.3583 L291.8811 648.7979 L292.71 648.2374 L293.5389 647.677 L294.3677 647.1165 L295.1966 646.5561 L296.0255 645.9956 L296.8543 645.4352 L297.6832 644.8747 L298.5121 644.3143 L299.341 643.7538 L300.1698 643.1934 L300.9987 642.6329 L301.8275 642.0724 L302.6564 641.512 L303.4853 640.9515 L304.3142 640.3911 L305.143 639.8306 L305.9719 639.2702 L306.8008 638.7097 L307.6296 638.1492 L308.4585 637.5888 L309.2874 637.0284 L310.1163 636.4679 L310.9451 635.9075 L311.774 635.347 L312.6029 634.7866 L313.4317 634.2261 L314.2606 633.6656 L315.0895 633.1052 L315.9184 632.5447 L316.7472 631.9843 L317.5761 631.4238 L318.405 630.8633 L319.2338 630.3029 L320.0627 629.7424 L320.8916 629.182 L321.7205 628.6215 L322.5493 628.0611 L323.3782 627.5006 L324.2071 626.9402 L325.0359 626.3797 L325.8648 625.8193 L326.6937 625.2588 L327.5226 624.6984 L328.3514 624.1379 L329.1803 623.5775 L330.0092 623.017 L330.838 622.4565 L331.6669 621.8961 L332.4958 621.3356 L333.3246 620.7752 L334.1535 620.2147 L334.9824 619.6542 L335.8112 619.0938 L336.6401 618.5334 L337.469 617.9729 L338.2979 617.4125 L339.1267 616.852 L339.9556 616.2916 L340.7845 615.7311 L341.6133 615.1707 L342.4422 614.6102 L343.2711 614.0497 L344.0999 613.4893 L344.9288 612.9288 L345.7577 612.3683 L346.5865 611.8079 L347.4154 611.2474 L348.2443 610.687 L349.0732 610.1265 L349.902 609.5661 L350.7309 609.0056 L351.5598 608.4452 L352.3886 607.8847 L353.2175 607.3243 L354.0464 606.7638 L354.8752 606.2034 L355.7041 605.6429 L356.533 605.0825 L357.3619 604.522 L358.1907 603.9615 L359.0196 603.4011 L359.8484 602.8406 L360.6773 602.2802 L361.5062 601.7197 L362.3351 601.1592 L363.1639 600.5988 L363.9928 600.0383 L364.8217 599.4779 L365.6505 598.9174 L366.4794 598.357 L367.3083 597.7965 L368.1371 597.2361 L368.966 596.6757 L369.7949 596.1152 L370.6238 595.5547 L371.4527 594.9943 L372.2815 594.4338 L373.1104 593.8734 L373.9393 593.3129 L374.7681 592.7524 L375.597 592.192 L376.4259 591.6315 L377.2547 591.0711 L378.0836 590.5106 L378.9125 589.9502 L379.7413 589.3897 L380.5702 588.8293 L381.3991 588.2688 L382.228 587.7084 L383.0568 587.1479 L383.8857 586.5875 L384.7146 586.027 L385.5435 585.4666 L386.3723 584.9061 L387.2012 584.3456 L388.0301 583.7852 L388.8589 583.2247 L389.6878 582.6642 L390.5167 582.1038 L391.3455 581.5433 L392.1744 580.9829 L393.0033 580.4224 L393.8322 579.862 L394.661 579.3015 L395.4899 578.7411 L396.3188 578.1806 L397.1476 577.6202 L397.9765 577.0597 L398.8054 576.4993 L399.6342 575.9388 L400.4631 575.3784 L401.292 574.8179 L402.1208 574.2574 L402.9497 573.697 L403.7786 573.1365 L404.6075 572.576 L405.4363 572.0156 L406.2652 571.4551 L407.0941 570.8947 L407.9229 570.3343 L408.7518 569.7738 L409.5807 569.2134 L410.4095 568.6529 L411.2384 568.0924 L412.0673 567.532 L412.8961 566.9716 L413.725 566.4111 L414.5539 565.8506 L415.3828 565.2902 L416.2116 564.7297 L417.0405 564.1693 L417.8694 563.6088 L418.6982 563.0483 L419.5271 562.4879 L420.356 561.9274 L421.1848 561.367 L422.0137 560.8065 L422.8426 560.2461 L423.6715 559.6856 L424.5003 559.1252 L425.3292 558.5647 L426.1581 558.0043 L426.9869 557.4438 L427.8158 556.8834 L428.6447 556.3229 L429.4735 555.7625 L430.3024 555.202 L431.1313 554.6415 L431.9601 554.0811 L432.789 553.5206 L433.6179 552.9602 L434.4468 552.3997 L435.2756 551.8392 L436.1045 551.2788 L436.9334 550.7184 L437.7623 550.1579 L438.5911 549.5975 L439.42 549.037 L440.2489 548.4766 L441.0777 547.9161 L441.9066 547.3557 L442.7355 546.7952 L443.5643 546.2347 L444.3932 545.6743 L445.2221 545.1138 L446.051 544.5533 L446.8798 543.9929 L447.7087 543.4324 L448.5376 542.872 L449.3665 542.3115 L450.1953 541.7511 L451.0242 541.1906 L451.853 540.6302 L452.6819 540.0697 L453.5108 539.5093 L454.3396 538.9488 L455.1685 538.3884 L455.9974 537.8279 L456.8263 537.2675 L457.6551 536.707 L458.484 536.1465 L459.3129 535.5861 L460.1418 535.0256 L460.9706 534.4651 L461.7995 533.9047 L462.6284 533.3443 L463.4572 532.7838 L464.2861 532.2233 L465.115 531.6629 L465.9438 531.1024 L466.7727 530.542 L467.6016 529.9816 L468.4305 529.4211 L469.2593 528.8607 L470.0882 528.3002 L470.9171 527.7397 L471.7459 527.1793 L472.5748 526.6188 L473.4037 526.0583 L474.2325 525.4979 L475.0614 524.9374 L475.8903 524.377 L476.7191 523.8165 L477.548 523.2561 L478.3769 522.6956 L479.2057 522.1352 L480.0346 521.5747 L480.8635 521.0143 L481.6924 520.4538 L482.5212 519.8934 L483.3501 519.3329 L484.179 518.7725 L485.0078 518.212 L485.8367 517.6516 L486.6656 517.0911 L487.4944 516.5306 L488.3233 515.9702 L489.1522 515.4097 L489.9811 514.8492 L490.8099 514.2888 L491.6388 513.7283 L492.4677 513.1679 L493.2965 512.6074 L494.1254 512.047 L494.9543 511.4865 L495.7831 510.9261 L496.612 510.3656 L497.4409 509.8052 L498.2698 509.2447 L499.0986 508.6843 L499.9275 508.1238 L500.7564 507.5634 L501.5853 507.0029 L502.4141 506.4424 L503.243 505.882 L504.0718 505.3215 L504.9007 504.7611 L505.7296 504.2006 L506.5584 503.6402 L507.3873 503.0797 L508.2162 502.5193 L509.0451 501.9588 L509.8739 501.3983 L510.7028 500.8379 L511.5317 500.2775 L512.3605 499.717 L513.1895 499.1565 L514.0183 498.5961 L514.8472 498.0356 L515.676 497.4752 L516.5049 496.9147 L517.3337 496.3542 L518.1627 495.7938 L518.9915 495.2334 L519.8204 494.6729 L520.6493 494.1125 L521.4781 493.552 L522.307 492.9915 L523.1359 492.4311 L523.9647 491.8706 L524.7936 491.3102 L525.6225 490.7497 L526.4514 490.1893 L527.2802 489.6288 L528.1091 489.0684 L528.9379 488.5079 L529.7668 487.9474 L530.5957 487.387 L531.4246 486.8265 L532.2535 486.2661 L533.0823 485.7056 L533.9112 485.1452 L534.7401 484.5847 L535.5689 484.0243 L536.3978 483.4638 L537.2266 482.9034 L538.0555 482.3429 L538.8844 481.7824 L539.7133 481.222 L540.5421 480.6615 L541.371 480.1011 L542.1999 479.5406 L543.0287 478.9802 L543.8576 478.4197 L544.6865 477.8593 L545.5154 477.2988 L546.3442 476.7383 L547.1731 476.1779 L548.002 475.6174 L548.8308 475.057 L549.6597 474.4966 L550.4886 473.9361 L551.3174 473.3756 L552.1463 472.8152 L552.9752 472.2547 L553.8041 471.6943 L554.6329 471.1338 L555.4618 470.5734 L556.2906 470.0129 L557.1196 469.4525 L557.9484 468.892 L558.7773 468.3315 L559.6061 467.7711 L560.435 467.2106 L561.2639 466.6502 L562.0928 466.0897 L562.9216 465.5293 L563.7505 464.9688 L564.5793 464.4084 L565.4083 463.8479 L566.2371 463.2874 L567.066 462.727 L567.8948 462.1665 L568.7238 461.6061 L569.5526 461.0456 L570.3815 460.4852 L571.2103 459.9247 L572.0392 459.3643 L572.8681 458.8038 L573.6969 458.2433 L574.5258 457.6829 L575.3547 457.1224 L576.1835 456.562 L577.0125 456.0015 L577.8413 455.4411 L578.6702 454.8806 L579.499 454.3202 L580.3279 453.7597 L581.1568 453.1992 L581.9857 452.6388 L582.8145 452.0784 L583.6434 451.5179 L584.4722 450.9575 L585.3011 450.397 L586.13 449.8365 L586.9589 449.2761 L587.7877 448.7156 L588.6166 448.1552 L589.4455 447.5947 L590.2743 447.0343 L591.1032 446.4738 L591.9321 445.9134 L592.7609 445.3529 L593.5898 444.7924 L594.4187 444.232 L595.2476 443.6715 L596.0764 443.1111 L596.9053 442.5506 L597.7341 441.9902 L598.563 441.4297 L599.3919 440.8693 L600.2208 440.3088 L601.0496 439.7484 L601.8785 439.1879 L602.7074 438.6274 L603.5363 438.067 L604.3652 437.5066 L605.194 436.9461 L606.0228 436.3856 L606.8517 435.8252 L607.6806 435.2647 L608.5095 434.7043 L609.3384 434.1438 L610.1672 433.5833 L610.9961 433.0229 L611.825 432.4625 L612.6538 431.902 L613.4827 431.3416 L614.3116 430.7811 L615.1404 430.2206 L615.9693 429.6602 L616.7982 429.0997 L617.6271 428.5393 L618.4559 427.9788 L619.2848 427.4183 L620.1136 426.8579 L620.9425 426.2975 L621.7714 425.737 L622.6003 425.1765 L623.4291 424.6161 L624.258 424.0556 L625.0869 423.4952 L625.9158 422.9347 L626.7446 422.3743 L627.5735 421.8138 L628.4023 421.2534 L629.2312 420.6929 L630.0601 420.1324 L630.889 419.572 L631.7178 419.0115 L632.5467 418.4511 L633.3756 417.8906 L634.2045 417.3302 L635.0333 416.7697 L635.8622 416.2093 L636.691 415.6488 L637.5199 415.0884 L638.3488 414.5279 L639.1777 413.9674 L640.0065 413.407 L640.8354 412.8465 L641.6643 412.2861 L642.4931 411.7256 L643.322 411.1652 L644.1509 410.6047 L644.9797 410.0443 L645.8087 409.4838 L646.6375 408.9234 L647.4664 408.3629 L648.2952 407.8024 L649.1241 407.242 L649.9529 406.6815 L650.7819 406.1211 L651.6107 405.5606 L652.4396 405.0002 L653.2684 404.4397 L654.0974 403.8792 L654.9262 403.3188 L655.7551 402.7584 L656.584 402.1979 L657.4128 401.6375 L658.2416 401.077 L659.0706 400.5165 L659.8994 399.9561 L660.7283 399.3956 L661.5572 398.8352 L662.386 398.2747 L663.2149 397.7143 L664.0438 397.1538 L664.8726 396.5934 L665.7015 396.0329 L666.5304 395.4724 L667.3593 394.912 L668.1881 394.3516 L669.017 393.7911 L669.8459 393.2306 L670.6747 392.6702 L671.5036 392.1097 L672.3325 391.5493 L673.1613 390.9888 L673.9902 390.4283 L674.8191 389.8679 L675.6479 389.3074 L676.4768 388.747 L677.3057 388.1866 L678.1346 387.6261 L678.9634 387.0656 L679.7923 386.5052 L680.6212 385.9447 L681.45 385.3843 L682.2789 384.8238 L683.1078 384.2634 L683.9366 383.7029 L684.7655 383.1424 L685.5944 382.582 L686.4233 382.0215 L687.2521 381.4611 L688.081 380.9006 L688.9099 380.3401 L689.7387 379.7797 L690.5676 379.2193 L691.3965 378.6588 L692.2253 378.0984 L693.0543 377.5379 L693.8831 376.9774 L694.7119 376.417 L695.5408 375.8565 L696.3697 375.2961 L697.1985 374.7356 L698.0275 374.1752 L698.8563 373.6147 L699.6852 373.0543 L700.514 372.4938 L701.343 371.9333 L702.1718 371.3729 L703.0007 370.8125 L703.8295 370.252 L704.6584 369.6915 L705.4872 369.1311 L706.3162 368.5706 L707.145 368.0102 L707.9739 367.4497 L708.8028 366.8893 L709.6316 366.3288 L710.4604 365.7683 L711.2894 365.2079 L712.1182 364.6475 L712.9471 364.087 L713.776 363.5266 L714.6049 362.9661 L715.4337 362.4056 L716.2626 361.8452 L717.0914 361.2847 L717.9203 360.7243 L718.7492 360.1638 L719.5781 359.6033 L720.4069 359.0429 L721.2358 358.4825 L722.0647 357.922 L722.8936 357.3615 L723.7224 356.8011 L724.5513 356.2406 L725.3801 355.6802 L726.209 355.1197 L727.0379 354.5593 L727.8668 353.9988 L728.6956 353.4384 L729.5245 352.8779 L730.3534 352.3175 L731.1823 351.757 L732.0111 351.1965 L732.84 350.6361 L733.6688 350.0756 L734.4977 349.5152 L735.3266 348.9547 L736.1555 348.3943 L736.9843 347.8338 L737.8132 347.2733 L738.6421 346.7129 L739.4709 346.1525 L740.2998 345.592 L741.1287 345.0315 L741.9575 344.4711 L742.7864 343.9106 L743.6153 343.3502 L744.4442 342.7897 L745.2731 342.2292 L746.1019 341.6688 L746.9307 341.1083 L747.7596 340.5479 L748.5885 339.9875 L749.4174 339.427 L750.2463 338.8665 L751.0751 338.3061 L751.904 337.7456 L752.7329 337.1852 L753.5618 336.6247 L754.3906 336.0643 L755.2195 335.5038 L756.0483 334.9433 L756.8772 334.3829 L757.7061 333.8224 L758.535 333.262 L759.3638 332.7015 L760.1927 332.1411 L761.0216 331.5807 L761.8504 331.0202 L762.6793 330.4597 L763.5082 329.8993 L764.337 329.3388 L765.1659 328.7784 L765.9948 328.2179 L766.8237 327.6574 L767.6525 327.097 L768.4814 326.5365 L769.3102 325.9761 L770.1391 325.4156 L770.968 324.8552 L771.7969 324.2947 L772.6257 323.7343 L773.4546 323.1738 L774.2835 322.6134 L775.1124 322.0529 L775.9412 321.4925 L776.7701 320.932 L777.5989 320.3715 L778.4278 319.8111 L779.2567 319.2506 L780.0856 318.6902 L780.9144 318.1297 L781.7433 317.5692 L782.5722 317.0088 L783.4011 316.4484 L784.2299 315.8879 L785.0588 315.3275 L785.8876 314.767 L786.7166 314.2065 L787.5454 313.6461 L788.3743 313.0856 L789.2032 312.5252 L790.032 311.9647 L790.8609 311.4043 L791.6898 310.8438 L792.5186 310.2834 L793.3475 309.7229 L794.1763 309.1624 L795.0052 308.602 L795.8341 308.0415 L796.663 307.4811 L797.4919 306.9206 L798.3207 306.3602 L799.1495 305.7997 L799.9785 305.2393 L800.8073 304.6788 L801.6362 304.1184 L802.4651 303.5579 L803.2939 302.9974 L804.1228 302.437 L804.9517 301.8766 L805.7806 301.3161 L806.6094 300.7556 L807.4383 300.1952 L808.2672 299.6347 L809.096 299.0742 L809.9249 298.5138 L810.7538 297.9534 L811.5826 297.3929 L812.4115 296.8324 L813.2404 296.272 L814.0692 295.7115 L814.8981 295.1511 L815.727 294.5906 L816.5558 294.0302 L817.3847 293.4697 L818.2136 292.9093 L819.0425 292.3488 L819.8713 291.7884 L820.7003 291.2279 L821.5291 290.6674 L822.3579 290.107 L823.1868 289.5465 L824.0157 288.9861 L824.8445 288.4256 L825.6735 287.8652 L826.5023 287.3047 L827.3312 286.7443 L828.16 286.1838 L828.9889 285.6234 L829.8177 285.0629 L830.6466 284.5024 L831.4755 283.942 L832.3044 283.3816 L833.1332 282.8211 L833.9622 282.2606 L834.791 281.7002 L835.6199 281.1397 L836.4487 280.5793 L837.2776 280.0188 L838.1064 279.4583 L838.9354 278.8979 L839.7642 278.3374 L840.5931 277.777 L841.422 277.2166 L842.2509 276.6561 L843.0797 276.0956 L843.9086 275.5352 L844.7374 274.9747 L845.5663 274.4143 L846.3951 273.8538 L847.2241 273.2934 L848.0529 272.7329 L848.8818 272.1724 L849.7107 271.612 L850.5396 271.0515 L851.3683 270.4911 L852.1973 269.9306 L853.0261 269.3701 L853.855 268.8098 L854.6839 268.2493 L855.5128 267.6888 L856.3416 267.1284 L857.1705 266.5679 L857.9994 266.0074 L858.8282 265.447 L859.6571 264.8865 L860.486 264.3261 L861.3148 263.7656 L862.1437 263.2052 L862.9726 262.6447 L863.8015 262.0843 L864.6303 261.5238 L865.4592 260.9633 L866.288 260.4029 L867.1169 259.8425 L867.9458 259.282 L868.7747 258.7215 L869.6035 258.1611 L870.4324 257.6006 L871.2613 257.0402 L872.0901 256.4797 L872.9191 255.9193 L873.7479 255.3588 L874.5767 254.7983 L875.4056 254.2379 L876.2345 253.6775 L877.0634 253.117 L877.8923 252.5565 L878.7211 251.9961 L879.55 251.4356 L880.3788 250.8752 L881.2077 250.3147 L882.0366 249.7543 L882.8654 249.1938 L883.6943 248.6333 L884.5232 248.0729 L885.3521 247.5125 L886.181 246.952 L887.0098 246.3915 L887.8387 245.8311 L888.6675 245.2706 L889.4964 244.7102 L890.3253 244.1497 L891.1542 243.5893 L891.983 243.0288 L892.8119 242.4683 L893.6408 241.9079 L894.4697 241.3475 L895.2985 240.787 L896.1274 240.2265 L896.9562 239.6661 L897.7851 239.1056 L898.614 238.5452 L899.4429 237.9847 L900.2717 237.4243 L901.1006 236.8638 L901.9295 236.3033 L902.7584 235.7429 L903.5872 235.1824 L904.4161 234.622 L905.2449 234.0615 L906.0738 233.5011 L906.9027 232.9406 L907.7316 232.3802 L908.5604 231.8197 L909.3893 231.2593 L910.2182 230.6988 L911.047 230.1383 L911.8759 229.5779 L912.7048 229.0175 L913.5336 228.457 L914.3625 227.8965 L915.1914 227.3361 L916.0203 226.7757 L916.8491 226.2152 L917.678 225.6547 L918.5069 225.0943 L919.3357 224.5338 L920.1646 223.9733 L920.9935 223.4129 L921.8223 222.8524 L922.6512 222.292 L923.4801 221.7315 L924.309 221.1711 L925.1379 220.6106 L925.9667 220.0502 L926.7955 219.4897 L927.6245 218.9293 L928.4533 218.3688 L929.2822 217.8084 L930.1111 217.2479 L930.9399 216.6875 L931.7688 216.127 L932.5977 215.5665 L933.4266 215.0061 L934.2554 214.4456 L935.0842 213.8852 L935.9131 213.3247 L936.742 212.7643 L937.5709 212.2038 L938.3998 211.6434 L939.2286 211.0829 L940.0575 210.5224 L940.8864 209.962 L941.7152 209.4015 L942.5441 208.8411 L943.373 208.2806 L944.2018 207.7202 L945.0307 207.1597 L945.8596 206.5993 L946.6885 206.0388 L947.5173 205.4784 L948.3462 204.9179 L949.175 204.3575 L950.0039 203.797 L950.8328 203.2365 L951.6617 202.6761 L952.4905 202.1156 L953.3194 201.5552 L954.1483 200.9947 L954.9772 200.4342 L955.806 199.8738 L956.6349 199.3134 L957.4637 198.7529 L958.2926 198.1924 L959.1215 197.632 L959.9504 197.0715 L960.7792 196.5111 L961.6082 195.9506 L962.437 195.3902 L963.2659 194.8297 L964.0947 194.2692 L964.9236 193.7088 L965.7524 193.1484 L966.5814 192.5879 L967.4102 192.0274 L968.2391 191.467 L969.0679 190.9066 L969.8969 190.3461 L970.7257 189.7856 L971.5545 189.2252 L972.3834 188.6647 L973.2123 188.1042 L974.0411 187.5438 L974.8701 186.9834 L975.6989 186.4229 L976.5278 185.8624 L977.3567 185.302 L978.1855 184.7416 L979.0143 184.1811 L979.8433 183.6206 L980.6721 183.0602 L981.501 182.4997 L982.3299 181.9393 L983.1588 181.3788 L983.9876 180.8184 L984.8165 180.2579 L985.6454 179.6974 L986.4742 179.137 L987.3031 178.5766 L988.132 178.0161 L988.9608 177.4556 L989.7897 176.8952 L990.6186 176.3347 L991.4474 175.7743 L992.2763 175.2138 L993.1052 174.6534 L993.934 174.0929"
         style="fill:none; fill-rule:evenodd;"
         id="path51" />
    </g>
  </g>
</svg>
